<?xml version="1.0" encoding="UTF-8" standalone="no"?>
<!-- Created with Inkscape (http://www.inkscape.org/) -->

<svg
   xmlns:dc="http://purl.org/dc/elements/1.1/"
   xmlns:cc="http://creativecommons.org/ns#"
   xmlns:rdf="http://www.w3.org/1999/02/22-rdf-syntax-ns#"
   xmlns:svg="http://www.w3.org/2000/svg"
   xmlns="http://www.w3.org/2000/svg"
   xmlns:sodipodi="http://sodipodi.sourceforge.net/DTD/sodipodi-0.dtd"
   xmlns:inkscape="http://www.inkscape.org/namespaces/inkscape"
   version="1.1"
   id="svg2"
   xml:space="preserve"
   width="70.764168"
   height="86.852074"
   viewBox="0 0 70.764168 86.852075"
   sodipodi:docname="hertzianalogo.svg"
   inkscape:version="0.92.3 (2405546, 2018-03-11)"><metadata
     id="metadata8"><rdf:RDF><cc:Work
         rdf:about=""><dc:format>image/svg+xml</dc:format><dc:type
           rdf:resource="http://purl.org/dc/dcmitype/StillImage" /><dc:title></dc:title></cc:Work></rdf:RDF></metadata><defs
     id="defs6"><clipPath
       clipPathUnits="userSpaceOnUse"
       id="clipPath18"><path
         d="M 0,78.948 H 262.419 V 0 H 0 Z"
         id="path16"
         inkscape:connector-curvature="0" /></clipPath><clipPath
       clipPathUnits="userSpaceOnUse"
       id="clipPath286"><rect
         id="rect288"
         width="57.24955"
         height="100.01912"
         x="10.994059"
         y="-84.868774"
         style="stroke-width:0.75"
         transform="scale(1,-1)" /></clipPath></defs><sodipodi:namedview
     pagecolor="#ffffff"
     bordercolor="#666666"
     borderopacity="1"
     objecttolerance="10"
     gridtolerance="10"
     guidetolerance="10"
     inkscape:pageopacity="0"
     inkscape:pageshadow="2"
     inkscape:window-width="1920"
     inkscape:window-height="1025"
     id="namedview4"
     showgrid="false"
     inkscape:zoom="5.5939306"
     inkscape:cx="71.860158"
     inkscape:cy="34.23329"
     inkscape:window-x="0"
     inkscape:window-y="27"
     inkscape:window-maximized="1"
     inkscape:current-layer="g10" /><g
     id="g10"
     inkscape:groupmode="layer"
     inkscape:label="Logo_BH_vert"
     transform="matrix(1.3333333,0,0,-1.3333333,-20.227311,96.057959)"><g
       id="g12"
       clip-path="url(#clipPath286)"><g
         id="g14"
         clip-path="url(#clipPath18)"><g
           id="g20"
           transform="translate(70.688,47.4788)"><path
             d="M 0,0 H 1.821 V 15.347 H 0 v 0.632 h 6.372 c 3.894,0 5.915,-1.391 5.915,-3.843 0,-2.049 -1.441,-3.49 -4.071,-3.92 v -0.1 c 2.934,-0.481 4.628,-2.175 4.628,-4.198 0,-2.831 -2.276,-4.551 -6.573,-4.551 H 0 Z m 6.169,8.419 c 2.806,0 3.564,0.911 3.564,3.641 0,2.679 -1.036,3.287 -3.665,3.287 H 4.298 V 8.419 Z M 4.298,0 h 2.2 c 2.78,0 3.589,0.883 3.589,3.791 0,2.91 -1.035,3.996 -3.816,3.996 H 4.298 Z"
             style="fill:#8d1c15;fill-opacity:1;fill-rule:nonzero;stroke:none"
             id="path22"
             inkscape:connector-curvature="0" /></g><g
           id="g24"
           transform="translate(86.5366,47.4788)"><path
             d="M 0,0 H 2.098 V 15.347 H 0 v 0.632 H 6.775 V 15.347 H 4.626 V 0 H 6.775 V -0.633 H 0 Z"
             style="fill:#8d1c15;fill-opacity:1;fill-rule:nonzero;stroke:none"
             id="path26"
             inkscape:connector-curvature="0" /></g><g
           id="g28"
           transform="translate(97.6836,47.4788)"><path
             d="M 0,0 H 1.821 V 15.347 H 0 v 0.632 h 6.371 c 3.894,0 5.917,-1.391 5.917,-3.843 0,-2.049 -1.442,-3.49 -4.071,-3.92 v -0.1 c 2.933,-0.481 4.627,-2.175 4.627,-4.198 0,-2.831 -2.276,-4.551 -6.573,-4.551 H 0 Z m 6.17,8.419 c 2.806,0 3.564,0.911 3.564,3.641 0,2.679 -1.036,3.287 -3.666,3.287 H 4.298 V 8.419 Z M 4.298,0 h 2.201 c 2.78,0 3.589,0.883 3.589,3.791 0,2.91 -1.036,3.996 -3.817,3.996 H 4.298 Z"
             style="fill:#8d1c15;fill-opacity:1;fill-rule:nonzero;stroke:none"
             id="path30"
             inkscape:connector-curvature="0" /></g><g
           id="g32"
           transform="translate(113.0264,47.4788)"><path
             d="M 0,0 H 2.074 V 15.347 H 0.077 v 0.632 H 6.876 V 15.347 H 4.603 V 0 h 3.412 c 2.528,0 3.515,0.961 4.248,4.045 h 0.48 L 12.465,-0.633 H 0 Z"
             style="fill:#8d1c15;fill-opacity:1;fill-rule:nonzero;stroke:none"
             id="path34"
             inkscape:connector-curvature="0" /></g><g
           id="g36"
           transform="translate(129.3808,47.4788)"><path
             d="M 0,0 H 2.098 V 15.347 H 0 v 0.632 H 6.775 V 15.347 H 4.626 V 0 H 6.775 V -0.633 H 0 Z"
             style="fill:#8d1c15;fill-opacity:1;fill-rule:nonzero;stroke:none"
             id="path38"
             inkscape:connector-curvature="0" /></g><g
           id="g40"
           transform="translate(142.5752,49.0452)"><path
             d="m 0,0 c -1.212,1.569 -1.947,3.767 -1.947,6.17 0,2.325 0.683,4.272 1.947,5.84 1.467,1.795 3.161,2.704 5.259,2.704 1.972,0 3.59,-0.781 4.981,-2.401 1.416,-1.643 2.2,-3.818 2.2,-6.27 0,-2.376 -0.758,-4.578 -2.073,-6.193 C 9,-1.844 7.408,-2.602 5.259,-2.602 3.009,-2.602 1.391,-1.793 0,0 m 0.91,5.032 c 0,-4.703 1.416,-7.004 4.349,-7.004 2.932,0 4.324,2.327 4.324,7.053 0,6.196 -0.784,9.052 -4.324,9.052 -3.514,0 -4.349,-2.906 -4.349,-9.101"
             style="fill:#8d1c15;fill-opacity:1;fill-rule:nonzero;stroke:none"
             id="path42"
             inkscape:connector-curvature="0" /></g><g
           id="g44"
           transform="translate(163.5049,47.4788)"><path
             d="m 0,0 h 2.099 v 15.347 c -0.304,0.026 -0.557,0.026 -0.835,0.026 -2.427,0 -3.337,-1.113 -3.97,-4.25 h -0.556 l 0.227,4.856 H 9.784 L 9.962,11.225 H 9.355 c -0.38,2.982 -1.492,4.148 -4.07,4.148 -0.228,0 -0.456,0 -0.683,-0.026 V 0 H 6.649 V -0.633 H 0 Z"
             style="fill:#8d1c15;fill-opacity:1;fill-rule:nonzero;stroke:none"
             id="path46"
             inkscape:connector-curvature="0" /></g><g
           id="g48"
           transform="translate(177.3813,47.4788)"><path
             d="M 0,0 H 1.871 V 15.347 H 0 v 0.632 H 6.27 V 15.347 H 4.398 v -7.03 h 7.156 v 7.03 H 9.682 v 0.632 h 6.27 v -0.632 h -1.87 V 0 h 1.87 V -0.633 H 9.682 V 0 h 1.872 V 7.609 H 4.398 V 0 H 6.27 V -0.633 H 0 Z"
             style="fill:#8d1c15;fill-opacity:1;fill-rule:nonzero;stroke:none"
             id="path50"
             inkscape:connector-curvature="0" /></g><g
           id="g52"
           transform="translate(197.8042,47.4788)"><path
             d="M 0,0 H 1.871 V 15.347 H 0 v 0.632 h 12.338 v -3.996 h -0.531 c -0.404,2.705 -1.567,3.364 -4.298,3.364 h -3.11 v -7.03 h 0.506 c 2.124,0 2.933,0.658 3.085,2.63 H 8.521 V 4.703 H 7.99 C 7.863,6.952 6.954,7.687 4.526,7.687 H 4.399 V 0 h 3.515 c 2.781,0 3.842,1.012 4.475,4.096 h 0.557 L 12.692,-0.633 H 0 Z"
             style="fill:#8d1c15;fill-opacity:1;fill-rule:nonzero;stroke:none"
             id="path54"
             inkscape:connector-curvature="0" /></g><g
           id="g56"
           transform="translate(228.4936,51.2957)"><path
             d="m 0,0 v -4.45 h -0.531 l -0.784,0.81 c -1.012,-0.81 -2.351,-1.214 -4.019,-1.214 -4.098,0 -7.056,3.439 -7.056,8.445 0,2.376 0.683,4.5 1.998,6.169 1.341,1.719 3.389,2.703 5.36,2.703 1.366,0 2.505,-0.403 3.667,-1.288 l 0.834,0.784 h 0.38 V 7.762 h -0.532 c -0.708,2.73 -2.248,4.146 -4.45,4.146 -3.236,0 -4.398,-2.882 -4.398,-8.799 0,-2.45 0.151,-4.223 0.884,-5.436 0.684,-1.162 1.946,-1.845 3.261,-1.845 2.402,0 4.097,1.417 4.906,4.172 z"
             style="fill:#8d1c15;fill-opacity:1;fill-rule:nonzero;stroke:none"
             id="path58"
             inkscape:connector-curvature="0" /></g><g
           id="g60"
           transform="translate(231.9531,47.4788)"><path
             d="M 0,0 H 1.97 L 7.634,16.408 H 8.268 L 13.55,0 h 1.746 V -0.633 H 8.975 V 0 h 2.046 L 9.355,5.333 H 4.55 L 2.781,0 H 4.88 V -0.633 H 0 Z M 9.126,6.068 7.028,12.743 4.777,6.068 Z"
             style="fill:#8d1c15;fill-opacity:1;fill-rule:nonzero;stroke:none"
             id="path62"
             inkscape:connector-curvature="0" /></g><g
           id="g64"
           transform="translate(70.688,25.8763)"><path
             d="M 0,0 H 1.872 V 15.347 H 0 v 0.632 H 6.271 V 15.347 H 4.4 v -7.03 h 7.154 v 7.03 H 9.685 v 0.632 h 6.27 V 15.347 H 14.083 V 0 h 1.872 V -0.633 H 9.685 V 0 h 1.869 V 7.609 H 4.4 V 0 H 6.271 V -0.633 H 0 Z"
             style="fill:#8d1c15;fill-opacity:1;fill-rule:nonzero;stroke:none"
             id="path66"
             inkscape:connector-curvature="0" /></g><g
           id="g68"
           transform="translate(90.7598,25.8763)"><path
             d="M 0,0 H 1.87 V 15.347 H 0 v 0.632 H 12.337 V 11.983 H 11.808 C 11.402,14.688 10.24,15.347 7.51,15.347 H 4.398 v -7.03 h 0.506 c 2.123,0 2.934,0.658 3.087,2.631 H 8.52 V 4.703 H 7.991 C 7.861,6.952 6.952,7.687 4.525,7.687 H 4.398 V 0 h 3.515 c 2.781,0 3.843,1.013 4.476,4.096 h 0.557 L 12.691,-0.633 H 0 Z"
             style="fill:#8d1c15;fill-opacity:1;fill-rule:nonzero;stroke:none"
             id="path70"
             inkscape:connector-curvature="0" /></g><g
           id="g72"
           transform="translate(109.2612,25.8763)"><path
             d="m 0,0 v 15.347 h -1.87 v 0.632 h 7.03 c 3.791,0 5.788,-1.391 5.788,-3.665 0,-2.227 -1.819,-3.793 -5.054,-3.945 V 8.166 c 2.476,-0.43 4.018,-1.795 4.297,-3.591 0.253,-1.591 0,-3.033 0.354,-3.945 0.227,-0.606 0.607,-0.857 1.263,-0.857 0.431,0 0.859,0.124 1.288,0.328 V -0.531 C 12.265,-0.884 11.479,-1.062 10.795,-1.062 8.572,-1.062 7.686,0.657 7.536,4.046 7.487,5.208 7.487,6.12 6.753,6.926 6.069,7.661 5.06,8.064 3.92,8.064 H 2.454 V 0 H 4.375 V -0.633 H -1.973 V 0 Z m 3.92,8.721 c 3.035,0 4.298,0.557 4.298,3.439 0,2.681 -1.038,3.187 -3.59,3.187 H 2.454 V 8.721 Z"
             style="fill:#8d1c15;fill-opacity:1;fill-rule:nonzero;stroke:none"
             id="path74"
             inkscape:connector-curvature="0" /></g><g
           id="g76"
           transform="translate(128.0678,25.8763)"><path
             d="m 0,0 h 2.099 v 15.347 c -0.305,0.026 -0.555,0.026 -0.834,0.026 -2.43,0 -3.337,-1.113 -3.972,-4.25 h -0.555 l 0.23,4.856 H 9.785 L 9.961,11.225 H 9.356 c -0.379,2.982 -1.492,4.148 -4.072,4.148 -0.227,0 -0.452,0 -0.682,-0.026 L 4.602,0 H 6.65 V -0.633 H 0 Z"
             style="fill:#8d1c15;fill-opacity:1;fill-rule:nonzero;stroke:none"
             id="path78"
             inkscape:connector-curvature="0" /></g><g
           id="g80"
           transform="translate(141.2622,26.1292)"><path
             d="M 0,0 9.682,15.094 H 4.729 C 2.882,15.094 1.996,14.082 1.49,11.73 H 0.808 l 0.276,3.996 H 12.44 V 14.941 L 2.681,-0.253 h 4.475 c 3.009,0 4.145,1.037 4.625,4.122 H 12.44 L 12.135,-0.886 H 0 Z"
             style="fill:#8d1c15;fill-opacity:1;fill-rule:nonzero;stroke:none"
             id="path82"
             inkscape:connector-curvature="0" /></g><g
           id="g84"
           transform="translate(158.0205,25.8763)"><path
             d="M 0,0 H 2.097 V 15.347 H 0 v 0.632 H 6.776 V 15.347 H 4.628 V 0 H 6.776 V -0.633 H 0 Z"
             style="fill:#8d1c15;fill-opacity:1;fill-rule:nonzero;stroke:none"
             id="path86"
             inkscape:connector-curvature="0" /></g><g
           id="g88"
           transform="translate(168.3325,25.8763)"><path
             d="M 0,0 H 1.973 L 7.637,16.408 H 8.27 L 13.553,0 h 1.743 V -0.633 H 8.974 V 0 h 2.051 L 9.356,5.333 H 4.553 L 2.784,0 H 4.881 V -0.633 H 0 Z M 9.129,6.068 7.03,12.743 4.778,6.068 Z"
             style="fill:#8d1c15;fill-opacity:1;fill-rule:nonzero;stroke:none"
             id="path90"
             inkscape:connector-curvature="0" /></g><g
           id="g92"
           transform="translate(185.8012,25.8763)"><path
             d="M 0,0 H 1.87 V 15.347 H 0.023 v 0.632 h 4.83 L 11.931,4.096 v 11.251 h -1.895 v 0.632 h 4.625 V 15.347 H 12.742 V -1.036 H 12.083 L 2.655,15.043 V 0 H 4.524 V -0.633 H 0 Z"
             style="fill:#8d1c15;fill-opacity:1;fill-rule:nonzero;stroke:none"
             id="path94"
             inkscape:connector-curvature="0" /></g><g
           id="g96"
           transform="translate(210.7256,42.2845)"><path
             d="m 0,0 -5.667,-16.408 h -1.97 v -0.633 h 4.881 v 0.633 h -2.099 l 1.771,5.334 h 4.801 l 1.671,-5.334 H 1.337 v -0.633 h 6.325 v 0.633 H 5.914 L 0.63,0 Z M -0.607,-3.666 1.49,-10.34 h -4.346 z"
             style="fill:#8d1c15;fill-opacity:1;fill-rule:nonzero;stroke:none"
             id="path98"
             inkscape:connector-curvature="0" /></g><g
           id="g100"
           transform="translate(73.8081,19.3982)"><path
             d="M 0,0 -0.952,-3.126 -1.847,0 H -3.12 v -0.162 h 0.463 V -4.066 H -3.12 v -0.162 h 1.139 v 0.162 h -0.477 v 3.847 h 0.052 l 1.138,-4.009 h 0.161 l 1.223,4.009 h 0.025 v -3.847 h -0.475 v -0.162 h 1.575 v 0.162 H 0.746 v 3.904 H 1.241 V 0 Z"
             style="fill:#575756;fill-opacity:1;fill-rule:nonzero;stroke:none"
             id="path102"
             inkscape:connector-curvature="0" /></g><g
           id="g104"
           transform="translate(78.207,19.5066)"><path
             d="m 0,0 -1.441,-4.175 h -0.502 v -0.161 h 1.242 v 0.161 h -0.534 l 0.45,1.357 H 0.438 L 0.862,-4.175 H 0.341 V -4.336 H 1.95 v 0.161 H 1.506 L 0.161,0 Z m -0.154,-0.933 0.533,-1.698 h -1.106 z"
             style="fill:#575756;fill-opacity:1;fill-rule:nonzero;stroke:none"
             id="path106"
             inkscape:connector-curvature="0" /></g><g
           id="g108"
           transform="translate(83.5459,19.3982)"><path
             d="m 0,0 v -0.162 h 0.521 l -0.92,-1.48 -0.881,1.48 h 0.456 V 0 h -1.634 v -0.162 h 0.451 l 1.222,-2.046 -1.158,-1.858 h -0.54 v -0.162 h 1.312 v 0.162 h -0.547 l 1.03,1.691 1.016,-1.691 h -0.515 v -0.162 h 1.661 v 0.162 H 1.055 l -1.358,2.257 1.03,1.647 H 1.261 V 0 Z"
             style="fill:#575756;fill-opacity:1;fill-rule:nonzero;stroke:none"
             id="path110"
             inkscape:connector-curvature="0" /></g><path
           d="M 86.317,16.631 H 87.88 V 16.187 H 86.317 Z"
           style="fill:#575756;fill-opacity:1;fill-rule:nonzero;stroke:none"
           id="path112"
           inkscape:connector-curvature="0" /><g
           id="g114"
           transform="translate(89.1865,15.3318)"><path
             d="M 0,0 H 0.476 V 3.904 H 0 V 4.066 H 1.466 C 2.625,4.066 3.197,3.718 3.197,2.971 3.197,2.186 2.573,1.75 1.357,1.75 H 1.094 V 0 H 1.595 V -0.161 H 0 Z m 1.376,1.917 c 0.869,0 1.153,0.296 1.153,1.048 0,0.811 -0.309,0.939 -1.139,0.939 H 1.094 V 1.917 Z"
             style="fill:#575756;fill-opacity:1;fill-rule:nonzero;stroke:none"
             id="path116"
             inkscape:connector-curvature="0" /></g><g
           id="g118"
           transform="translate(93.5473,15.3318)"><path
             d="M 0,0 H 0.527 V 3.904 H 0.02 V 4.066 H 1.75 V 3.904 H 1.171 V 0 H 2.039 C 2.683,0 2.934,0.244 3.121,1.029 H 3.243 L 3.172,-0.161 H 0 Z"
             style="fill:#575756;fill-opacity:1;fill-rule:nonzero;stroke:none"
             id="path120"
             inkscape:connector-curvature="0" /></g><g
           id="g122"
           transform="translate(99.7734,19.5066)"><path
             d="m 0,0 -1.441,-4.175 h -0.501 v -0.161 h 1.241 v 0.161 h -0.534 l 0.451,1.357 H 0.438 L 0.863,-4.175 H 0.341 V -4.336 H 1.95 v 0.161 H 1.506 L 0.161,0 Z M -0.153,-0.933 0.38,-2.631 h -1.106 z"
             style="fill:#575756;fill-opacity:1;fill-rule:nonzero;stroke:none"
             id="path124"
             inkscape:connector-curvature="0" /></g><g
           id="g126"
           transform="translate(105.4922,19.3982)"><path
             d="M 0,0 V -0.162 H 0.483 V -3.024 L -1.318,0 h -1.229 v -0.162 h 0.469 v -3.904 h -0.476 v -0.162 h 1.152 v 0.162 h -0.476 v 3.828 l 2.399,-4.093 h 0.168 v 4.169 H 1.178 V 0 Z"
             style="fill:#575756;fill-opacity:1;fill-rule:nonzero;stroke:none"
             id="path128"
             inkscape:connector-curvature="0" /></g><g
           id="g130"
           transform="translate(111.7056,16.3015)"><path
             d="m 0,0 v -1.131 h -0.135 l -0.2,0.205 c -0.257,-0.205 -0.598,-0.308 -1.022,-0.308 -1.042,0 -1.795,0.875 -1.795,2.15 0,0.604 0.173,1.144 0.508,1.569 0.341,0.437 0.862,0.688 1.363,0.688 0.348,0 0.638,-0.103 0.934,-0.328 l 0.212,0.199 h 0.097 V 1.976 h -0.135 c -0.181,0.695 -0.573,1.056 -1.133,1.056 -0.824,0 -1.119,-0.735 -1.119,-2.239 0,-0.625 0.038,-1.075 0.225,-1.383 0.174,-0.297 0.495,-0.47 0.83,-0.47 0.611,0 1.042,0.36 1.248,1.06 z"
             style="fill:#575756;fill-opacity:1;fill-rule:nonzero;stroke:none"
             id="path132"
             inkscape:connector-curvature="0" /></g><g
           id="g134"
           transform="translate(115.6352,19.3982)"><path
             d="M 0,0 V -0.162 H 0.535 L -1.158,-1.95 v -0.065 l 1.602,-2.051 h -0.508 v -0.162 h 1.596 v 0.166 H 1.178 l -1.859,2.337 1.473,1.563 H 1.268 V 0 Z m -2.341,0 v -0.162 h 0.476 v -3.904 h -0.476 v -0.162 h 1.589 v 0.162 h -0.476 v 3.904 h 0.476 V 0 Z"
             style="fill:#575756;fill-opacity:1;fill-rule:nonzero;stroke:none"
             id="path136"
             inkscape:connector-curvature="0" /></g><path
           d="m 118.086,16.631 h 1.563 v -0.444 h -1.563 z"
           style="fill:#575756;fill-opacity:1;fill-rule:nonzero;stroke:none"
           id="path138"
           inkscape:connector-curvature="0" /><g
           id="g140"
           transform="translate(121.019,19.3982)"><path
             d="M 0,0 V -0.162 H 0.534 V -4.066 H 0 v -0.162 h 1.724 v 0.162 H 1.177 v 3.904 H 1.724 V 0 Z"
             style="fill:#575756;fill-opacity:1;fill-rule:nonzero;stroke:none"
             id="path142"
             inkscape:connector-curvature="0" /></g><g
           id="g144"
           transform="translate(127.04,19.3982)"><path
             d="M 0,0 V -0.162 H 0.482 V -3.024 L -1.319,0 h -1.229 v -0.162 h 0.47 v -3.904 h -0.476 v -0.162 h 1.152 v 0.162 h -0.476 v 3.828 l 2.399,-4.093 h 0.167 v 4.169 h 0.49 V 0 Z"
             style="fill:#575756;fill-opacity:1;fill-rule:nonzero;stroke:none"
             id="path146"
             inkscape:connector-curvature="0" /></g><g
           id="g148"
           transform="translate(129.6186,15.1516)"><path
             d="M 0,0 V 1.112 H 0.122 C 0.328,0.47 0.798,0.096 1.332,0.096 c 0.611,0 1.081,0.438 1.081,0.985 0,0.514 -0.367,0.598 -1.062,0.816 -0.875,0.277 -1.345,0.521 -1.345,1.268 0,0.682 0.489,1.177 1.236,1.177 0.54,0 0.785,-0.25 0.842,-0.25 0.013,0 0.039,0.006 0.059,0.031 L 2.265,4.258 H 2.4 V 3.294 H 2.284 C 2.079,3.898 1.711,4.201 1.171,4.201 0.682,4.201 0.309,3.865 0.309,3.447 0.309,3.087 0.572,2.889 1.125,2.74 1.621,2.605 2.014,2.521 2.284,2.315 2.561,2.103 2.708,1.781 2.708,1.376 c 0,-0.868 -0.546,-1.435 -1.435,-1.435 -0.604,0 -0.861,0.29 -0.919,0.29 -0.013,0 -0.032,-0.013 -0.052,-0.032 L 0.109,0 Z"
             style="fill:#575756;fill-opacity:1;fill-rule:nonzero;stroke:none"
             id="path150"
             inkscape:connector-curvature="0" /></g><g
           id="g152"
           transform="translate(134.6035,15.3318)"><path
             d="M 0,0 H 0.534 V 3.904 C 0.457,3.912 0.393,3.912 0.322,3.912 c -0.618,0 -0.85,-0.284 -1.01,-1.081 H -0.83 l 0.058,1.235 H 2.49 L 2.534,2.856 H 2.38 C 2.285,3.616 2,3.912 1.344,3.912 c -0.057,0 -0.115,0 -0.174,-0.008 L 1.17,0 H 1.692 V -0.161 H 0 Z"
             style="fill:#575756;fill-opacity:1;fill-rule:nonzero;stroke:none"
             id="path154"
             inkscape:connector-curvature="0" /></g><g
           id="g156"
           transform="translate(138.3213,19.3982)"><path
             d="M 0,0 V -0.162 H 0.534 V -4.066 H 0 v -0.162 h 1.724 v 0.162 H 1.177 v 3.904 H 1.724 V 0 Z"
             style="fill:#575756;fill-opacity:1;fill-rule:nonzero;stroke:none"
             id="path158"
             inkscape:connector-curvature="0" /></g><g
           id="g160"
           transform="translate(142.3027,15.3318)"><path
             d="M 0,0 H 0.534 V 3.904 C 0.457,3.912 0.393,3.912 0.322,3.912 c -0.618,0 -0.85,-0.284 -1.011,-1.081 H -0.83 l 0.058,1.235 H 2.49 L 2.535,2.856 H 2.381 c -0.097,0.76 -0.38,1.056 -1.036,1.056 -0.058,0 -0.116,0 -0.174,-0.008 V 0 H 1.692 V -0.161 H 0 Z"
             style="fill:#575756;fill-opacity:1;fill-rule:nonzero;stroke:none"
             id="path162"
             inkscape:connector-curvature="0" /></g><g
           id="g164"
           transform="translate(146.9458,19.2361)"><path
             d="M 0,0 H -0.494 V 0.162 H 1.101 V 0 H 0.612 v -2.959 c 0,-0.656 0.315,-1.003 0.894,-1.003 0.676,0 1.036,0.424 1.036,1.241 V 0 H 2.06 V 0.162 H 3.218 V 0 H 2.735 V -2.741 C 2.735,-3.706 2.284,-4.176 1.326,-4.176 0.503,-4.176 0,-3.73 0,-2.998 Z"
             style="fill:#575756;fill-opacity:1;fill-rule:nonzero;stroke:none"
             id="path166"
             inkscape:connector-curvature="0" /></g><g
           id="g168"
           transform="translate(152.247,15.3318)"><path
             d="M 0,0 H 0.534 V 3.904 C 0.456,3.912 0.393,3.912 0.321,3.912 -0.296,3.912 -0.528,3.628 -0.688,2.831 H -0.83 l 0.058,1.235 H 2.489 L 2.535,2.856 H 2.38 c -0.096,0.76 -0.379,1.056 -1.036,1.056 -0.058,0 -0.116,0 -0.174,-0.008 V 0 H 1.691 V -0.161 H 0 Z"
             style="fill:#575756;fill-opacity:1;fill-rule:nonzero;stroke:none"
             id="path170"
             inkscape:connector-curvature="0" /></g><g
           id="g172"
           transform="translate(158.6787,15.3318)"><path
             d="M 0,0 H 0.476 V 3.904 H 0 V 4.066 H 3.146 V 2.939 H 3.011 C 2.946,3.712 2.645,3.904 1.912,3.904 H 1.12 V 2.083 h 0.057 c 0.554,0 0.772,0.181 0.81,0.67 H 2.123 V 1.177 H 1.987 C 1.944,1.698 1.731,1.917 1.248,1.917 1.203,1.917 1.164,1.91 1.12,1.91 V 0 H 1.621 V -0.161 H 0 Z"
             style="fill:#575756;fill-opacity:1;fill-rule:nonzero;stroke:none"
             id="path174"
             inkscape:connector-curvature="0" /></g><g
           id="g176"
           transform="translate(163.5727,19.2361)"><path
             d="M 0,0 H -0.495 V 0.162 H 1.101 V 0 H 0.612 v -2.959 c 0,-0.656 0.315,-1.003 0.895,-1.003 0.674,0 1.035,0.424 1.035,1.241 V 0 H 2.06 V 0.162 H 3.217 V 0 H 2.735 V -2.741 C 2.735,-3.706 2.284,-4.176 1.326,-4.176 0.503,-4.176 0,-3.73 0,-2.998 Z m 0.875,1.384 c 0.167,0 0.316,-0.142 0.316,-0.309 0,-0.18 -0.142,-0.316 -0.316,-0.316 -0.173,0 -0.308,0.136 -0.308,0.316 0,0.167 0.141,0.309 0.308,0.309 m 1.198,0 c 0.167,0 0.315,-0.142 0.315,-0.309 0,-0.18 -0.142,-0.316 -0.315,-0.316 -0.174,0 -0.309,0.136 -0.309,0.316 0,0.167 0.141,0.309 0.309,0.309"
             style="fill:#575756;fill-opacity:1;fill-rule:nonzero;stroke:none"
             id="path178"
             inkscape:connector-curvature="0" /></g><g
           id="g180"
           transform="translate(168.6997,15.3318)"><path
             d="M 0,0 V 3.904 H -0.476 V 4.066 H 1.312 C 2.277,4.066 2.787,3.712 2.787,3.132 2.787,2.566 2.323,2.167 1.5,2.129 V 2.078 C 2.13,1.969 2.523,1.62 2.593,1.164 2.658,0.759 2.593,0.392 2.684,0.16 2.74,0.005 2.837,-0.058 3.005,-0.058 c 0.11,0 0.218,0.031 0.328,0.083 v -0.16 C 3.12,-0.226 2.921,-0.271 2.747,-0.271 2.182,-0.271 1.956,0.167 1.918,1.029 1.905,1.325 1.905,1.556 1.718,1.762 1.545,1.949 1.287,2.051 0.999,2.051 H 0.624 V 0 h 0.49 V -0.161 H -0.501 V 0 Z m 0.999,2.219 c 0.771,0 1.091,0.141 1.091,0.875 0,0.682 -0.262,0.81 -0.912,0.81 H 0.624 V 2.219 Z"
             style="fill:#575756;fill-opacity:1;fill-rule:nonzero;stroke:none"
             id="path182"
             inkscape:connector-curvature="0" /></g><g
           id="g184"
           transform="translate(177.5049,19.3982)"><path
             d="M 0,0 V -0.162 H 0.535 L -1.157,-1.95 v -0.065 l 1.601,-2.051 h -0.508 v -0.162 h 1.597 v 0.166 H 1.178 l -1.859,2.337 1.473,1.563 H 1.269 V 0 Z m -2.341,0 v -0.162 h 0.476 v -3.904 h -0.476 v -0.162 h 1.59 v 0.162 h -0.477 v 3.904 h 0.477 V 0 Z"
             style="fill:#575756;fill-opacity:1;fill-rule:nonzero;stroke:none"
             id="path186"
             inkscape:connector-curvature="0" /></g><g
           id="g188"
           transform="translate(180.9013,19.2361)"><path
             d="M 0,0 H -0.496 V 0.162 H 1.1 V 0 H 0.611 v -2.959 c 0,-0.656 0.316,-1.003 0.894,-1.003 0.675,0 1.037,0.424 1.037,1.241 V 0 H 2.058 V 0.162 H 3.216 V 0 H 2.734 V -2.741 C 2.734,-3.706 2.283,-4.176 1.325,-4.176 0.503,-4.176 0,-3.73 0,-2.998 Z"
             style="fill:#575756;fill-opacity:1;fill-rule:nonzero;stroke:none"
             id="path190"
             inkscape:connector-curvature="0" /></g><g
           id="g192"
           transform="translate(188.1894,19.3982)"><path
             d="M 0,0 V -0.162 H 0.483 V -3.024 L -1.319,0 h -1.229 v -0.162 h 0.469 v -3.904 h -0.475 v -0.162 h 1.152 v 0.162 h -0.477 v 3.828 l 2.4,-4.093 h 0.167 v 4.169 H 1.177 V 0 Z"
             style="fill:#575756;fill-opacity:1;fill-rule:nonzero;stroke:none"
             id="path194"
             inkscape:connector-curvature="0" /></g><g
           id="g196"
           transform="translate(191.1543,15.1516)"><path
             d="M 0,0 V 1.112 H 0.123 C 0.328,0.47 0.798,0.096 1.332,0.096 c 0.61,0 1.08,0.438 1.08,0.985 0,0.514 -0.367,0.598 -1.062,0.816 -0.874,0.277 -1.344,0.521 -1.344,1.268 0,0.682 0.489,1.177 1.235,1.177 0.541,0 0.784,-0.25 0.843,-0.25 0.012,0 0.039,0.006 0.059,0.031 L 2.264,4.258 H 2.4 V 3.294 H 2.284 C 2.078,3.898 1.711,4.201 1.171,4.201 0.682,4.201 0.309,3.865 0.309,3.447 0.309,3.087 0.572,2.889 1.126,2.74 1.621,2.605 2.013,2.521 2.284,2.315 2.56,2.103 2.709,1.781 2.709,1.376 c 0,-0.868 -0.548,-1.435 -1.436,-1.435 -0.605,0 -0.862,0.29 -0.919,0.29 C 0.34,0.231 0.321,0.218 0.303,0.199 L 0.108,0 Z"
             style="fill:#575756;fill-opacity:1;fill-rule:nonzero;stroke:none"
             id="path198"
             inkscape:connector-curvature="0" /></g><g
           id="g200"
           transform="translate(196.1201,15.3318)"><path
             d="M 0,0 H 0.534 V 3.904 C 0.455,3.912 0.392,3.912 0.321,3.912 c -0.617,0 -0.849,-0.284 -1.009,-1.081 h -0.143 l 0.059,1.235 H 2.489 L 2.535,2.856 H 2.38 C 2.284,3.616 2,3.912 1.343,3.912 c -0.056,0 -0.114,0 -0.172,-0.008 V 0 h 0.52 V -0.161 H 0 Z"
             style="fill:#575756;fill-opacity:1;fill-rule:nonzero;stroke:none"
             id="path202"
             inkscape:connector-curvature="0" /></g><g
           id="g204"
           transform="translate(204.3794,16.6565)"><path
             d="m 0,0 v -0.147 h -0.387 c 0,-0.921 -0.584,-1.442 -1.639,-1.442 -1.108,0 -1.847,0.836 -1.847,2.162 0,0.617 0.192,1.17 0.56,1.602 0.36,0.424 0.816,0.643 1.338,0.643 0.405,0 0.759,-0.122 1.049,-0.347 l 0.231,0.225 h 0.091 V 1.621 h -0.135 c -0.156,0.67 -0.606,1.043 -1.204,1.043 -0.849,0 -1.203,-0.683 -1.203,-2.111 0,-1.357 0.283,-1.98 1.1,-1.98 0.701,0 0.958,0.34 0.958,1.131 v 0.149 H -1.686 V 0 Z"
             style="fill:#575756;fill-opacity:1;fill-rule:nonzero;stroke:none"
             id="path206"
             inkscape:connector-curvature="0" /></g><g
           id="g208"
           transform="translate(205.6191,15.3318)"><path
             d="M 0,0 H 0.476 V 3.904 H 0 V 4.066 H 3.14 V 3.049 H 3.006 C 2.901,3.737 2.605,3.904 1.912,3.904 H 1.12 V 2.116 h 0.129 c 0.54,0 0.746,0.168 0.785,0.67 H 2.169 V 1.196 H 2.034 C 2.001,1.769 1.77,1.956 1.152,1.956 H 1.12 V 0 H 2.015 C 2.722,0 2.992,0.257 3.153,1.042 H 3.295 L 3.23,-0.161 H 0 Z"
             style="fill:#575756;fill-opacity:1;fill-rule:nonzero;stroke:none"
             id="path210"
             inkscape:connector-curvature="0" /></g><g
           id="g212"
           transform="translate(210.3803,15.1516)"><path
             d="M 0,0 V 1.112 H 0.122 C 0.328,0.47 0.797,0.096 1.33,0.096 c 0.612,0 1.082,0.438 1.082,0.985 0,0.514 -0.367,0.598 -1.062,0.816 -0.875,0.277 -1.345,0.521 -1.345,1.268 0,0.682 0.489,1.177 1.237,1.177 0.539,0 0.783,-0.25 0.842,-0.25 0.013,0 0.039,0.006 0.057,0.031 L 2.263,4.258 H 2.399 V 3.294 H 2.284 C 2.077,3.898 1.71,4.201 1.17,4.201 0.681,4.201 0.308,3.865 0.308,3.447 0.308,3.087 0.572,2.889 1.125,2.74 1.621,2.605 2.013,2.521 2.284,2.315 2.56,2.103 2.708,1.781 2.708,1.376 c 0,-0.868 -0.547,-1.435 -1.435,-1.435 -0.605,0 -0.861,0.29 -0.92,0.29 C 0.34,0.231 0.321,0.218 0.302,0.199 L 0.109,0 Z"
             style="fill:#575756;fill-opacity:1;fill-rule:nonzero;stroke:none"
             id="path214"
             inkscape:connector-curvature="0" /></g><g
           id="g216"
           transform="translate(217.7514,16.3015)"><path
             d="m 0,0 v -1.131 h -0.135 l -0.2,0.205 c -0.256,-0.205 -0.598,-0.308 -1.022,-0.308 -1.043,0 -1.795,0.875 -1.795,2.15 0,0.604 0.173,1.144 0.508,1.569 0.341,0.437 0.863,0.688 1.363,0.688 0.348,0 0.637,-0.103 0.935,-0.328 l 0.211,0.199 h 0.097 V 1.976 h -0.136 c -0.18,0.695 -0.572,1.056 -1.131,1.056 -0.824,0 -1.12,-0.735 -1.12,-2.239 0,-0.625 0.038,-1.075 0.225,-1.383 0.173,-0.297 0.496,-0.47 0.83,-0.47 0.611,0 1.042,0.36 1.247,1.06 z"
             style="fill:#575756;fill-opacity:1;fill-rule:nonzero;stroke:none"
             id="path218"
             inkscape:connector-curvature="0" /></g><g
           id="g220"
           transform="translate(221.8925,19.3982)"><path
             d="M 0,0 V -0.162 H 0.476 V -1.95 h -1.82 v 1.788 h 0.477 V 0 h -1.597 v -0.162 h 0.478 v -3.904 h -0.478 v -0.162 h 1.597 v 0.162 h -0.477 v 1.935 h 1.82 V -4.066 H 0 v -0.162 h 1.596 v 0.162 H 1.12 v 3.904 H 1.596 V 0 Z"
             style="fill:#575756;fill-opacity:1;fill-rule:nonzero;stroke:none"
             id="path222"
             inkscape:connector-curvature="0" /></g><g
           id="g224"
           transform="translate(224.8452,19.3982)"><path
             d="M 0,0 V -0.162 H 0.534 V -4.066 H 0 v -0.162 h 1.724 v 0.162 H 1.178 v 3.904 H 1.724 V 0 Z"
             style="fill:#575756;fill-opacity:1;fill-rule:nonzero;stroke:none"
             id="path226"
             inkscape:connector-curvature="0" /></g><g
           id="g228"
           transform="translate(231.6006,16.3015)"><path
             d="m 0,0 v -1.131 h -0.136 l -0.199,0.205 c -0.258,-0.205 -0.599,-0.308 -1.024,-0.308 -1.041,0 -1.794,0.875 -1.794,2.15 0,0.604 0.173,1.144 0.508,1.569 0.34,0.437 0.862,0.688 1.363,0.688 0.348,0 0.638,-0.103 0.933,-0.328 l 0.213,0.199 h 0.097 V 1.976 h -0.137 c -0.178,0.695 -0.571,1.056 -1.131,1.056 -0.823,0 -1.119,-0.735 -1.119,-2.239 0,-0.625 0.037,-1.075 0.225,-1.383 0.173,-0.297 0.495,-0.47 0.829,-0.47 0.612,0 1.043,0.36 1.248,1.06 z"
             style="fill:#575756;fill-opacity:1;fill-rule:nonzero;stroke:none"
             id="path230"
             inkscape:connector-curvature="0" /></g><g
           id="g232"
           transform="translate(235.7466,19.3982)"><path
             d="M 0,0 V -0.162 H 0.477 V -1.95 h -1.821 v 1.788 h 0.476 V 0 h -1.595 v -0.162 h 0.476 v -3.904 h -0.476 v -0.162 h 1.595 v 0.162 h -0.476 v 1.935 H 0.477 V -4.066 H 0 v -0.162 h 1.597 v 0.162 H 1.122 v 3.904 H 1.597 V 0 Z"
             style="fill:#575756;fill-opacity:1;fill-rule:nonzero;stroke:none"
             id="path234"
             inkscape:connector-curvature="0" /></g><g
           id="g236"
           transform="translate(239.7939,15.3318)"><path
             d="M 0,0 H 0.533 V 3.904 C 0.456,3.912 0.392,3.912 0.32,3.912 c -0.616,0 -0.848,-0.284 -1.008,-1.081 h -0.143 l 0.059,1.235 H 2.489 L 2.533,2.856 H 2.38 c -0.097,0.76 -0.379,1.056 -1.036,1.056 -0.058,0 -0.116,0 -0.174,-0.008 V 0 H 1.691 V -0.161 H 0 Z"
             style="fill:#575756;fill-opacity:1;fill-rule:nonzero;stroke:none"
             id="path238"
             inkscape:connector-curvature="0" /></g><g
           id="g240"
           transform="translate(243.955,15.3318)"><path
             d="M 0,0 H 0.477 V 3.904 H 0 V 4.066 H 3.14 V 3.049 H 3.005 C 2.901,3.737 2.606,3.904 1.91,3.904 H 1.119 V 2.116 h 0.128 c 0.542,0 0.747,0.168 0.786,0.67 H 2.168 V 1.196 H 2.033 C 2.001,1.769 1.769,1.956 1.151,1.956 H 1.119 V 0 H 2.014 C 2.722,0 2.992,0.257 3.153,1.042 H 3.294 L 3.229,-0.161 H 0 Z"
             style="fill:#575756;fill-opacity:1;fill-rule:nonzero;stroke:none"
             id="path242"
             inkscape:connector-curvature="0" /></g><g
           id="g244"
           transform="translate(39.1875,7.3416)"><path
             d="m 0,0 c 0,-0.009 0,-0.017 0.001,-0.024 0.457,0.025 0.915,0.046 1.372,0.078 0.376,0.026 0.755,0.042 1.126,0.101 0.994,0.157 1.977,0.366 2.928,0.699 0.602,0.21 1.201,0.428 1.789,0.67 0.738,0.306 1.44,0.684 2.129,1.093 0.678,0.403 1.349,0.816 1.985,1.283 0.499,0.366 1,0.728 1.454,1.152 0.334,0.312 0.709,0.579 1.046,0.887 0.356,0.328 0.698,0.671 1.026,1.025 0.431,0.464 0.838,0.948 1.262,1.417 0.572,0.636 1.058,1.334 1.527,2.045 0.583,0.884 1.208,1.741 1.683,2.692 0.279,0.562 0.584,1.111 0.858,1.674 0.286,0.589 0.554,1.187 0.82,1.786 0.181,0.409 0.366,0.82 0.512,1.243 0.225,0.653 0.426,1.314 0.621,1.976 0.214,0.723 0.424,1.447 0.606,2.177 0.179,0.724 0.323,1.455 0.473,2.185 0.105,0.51 0.214,1.02 0.283,1.535 0.127,0.96 0.228,1.923 0.337,2.885 0.037,0.329 0.074,0.659 0.095,0.989 0.011,0.17 -0.046,0.346 -0.018,0.51 0.069,0.401 0.064,0.8 0.058,1.202 -0.015,0.853 -0.009,1.705 -0.024,2.558 -0.007,0.42 -0.037,0.84 -0.067,1.259 -0.028,0.393 -0.064,0.786 -0.107,1.178 -0.058,0.544 -0.118,1.089 -0.192,1.631 -0.05,0.383 -0.123,0.762 -0.187,1.143 -0.057,0.345 -0.105,0.691 -0.173,1.034 -0.102,0.51 -0.218,1.017 -0.328,1.526 -0.072,0.324 -0.135,0.65 -0.219,0.971 -0.155,0.59 -0.311,1.181 -0.489,1.765 -0.229,0.756 -0.45,1.516 -0.73,2.254 -0.298,0.786 -0.631,1.563 -1.002,2.318 -0.502,1.02 -0.978,2.058 -1.601,3.017 -0.405,0.626 -0.801,1.257 -1.206,1.883 -0.2,0.31 -0.397,0.622 -0.619,0.915 -0.353,0.464 -0.719,0.917 -1.091,1.365 -0.297,0.357 -0.6,0.712 -0.923,1.046 -0.423,0.438 -0.869,0.855 -1.305,1.282 -0.089,0.088 -0.166,0.191 -0.263,0.269 -0.562,0.46 -1.123,0.922 -1.696,1.367 -0.346,0.269 -0.711,0.513 -1.073,0.761 -0.207,0.142 -0.42,0.275 -0.636,0.403 -0.569,0.341 -1.132,0.694 -1.714,1.011 -0.919,0.5 -1.899,0.866 -2.887,1.198 -0.918,0.307 -1.858,0.53 -2.826,0.644 -0.768,0.089 -1.533,0.185 -2.305,0.184 -0.565,-0.002 -1.133,-0.007 -1.695,-0.067 -0.641,-0.068 -1.277,-0.187 -1.912,-0.305 -0.716,-0.134 -1.412,-0.345 -2.097,-0.592 -0.355,-0.129 -0.71,-0.256 -1.065,-0.384 -0.704,-0.255 -1.367,-0.601 -2.016,-0.965 -0.655,-0.368 -1.275,-0.803 -1.902,-1.219 -0.382,-0.252 -0.764,-0.507 -1.12,-0.792 -0.453,-0.362 -0.886,-0.75 -1.318,-1.137 -0.473,-0.423 -0.954,-0.84 -1.398,-1.292 -0.477,-0.485 -0.921,-1.003 -1.37,-1.515 -0.295,-0.336 -0.589,-0.675 -0.855,-1.035 -0.383,-0.519 -0.749,-1.051 -1.106,-1.589 -0.336,-0.509 -0.667,-1.023 -0.972,-1.552 -0.367,-0.637 -0.713,-1.287 -1.049,-1.941 -0.259,-0.502 -0.51,-1.011 -0.728,-1.531 -0.337,-0.804 -0.661,-1.612 -0.957,-2.431 -0.304,-0.844 -0.564,-1.704 -0.796,-2.572 -0.287,-1.076 -0.575,-2.152 -0.752,-3.252 -0.199,-1.24 -0.389,-2.482 -0.565,-3.724 -0.073,-0.506 -0.102,-1.018 -0.146,-1.529 -0.022,-0.258 -0.043,-0.519 -0.048,-0.779 -0.009,-0.476 -0.002,-0.953 -0.01,-1.43 -0.005,-0.233 -0.062,-0.468 -0.039,-0.697 0.041,-0.395 0.022,-0.788 0.03,-1.182 0.018,-0.807 0.04,-1.616 0.113,-2.418 0.085,-0.939 0.204,-1.876 0.349,-2.807 0.151,-0.973 0.351,-1.938 0.531,-2.906 0.161,-0.866 0.412,-1.708 0.661,-2.552 0.134,-0.457 0.269,-0.912 0.415,-1.364 0.134,-0.42 0.262,-0.844 0.431,-1.25 0.414,-0.995 0.83,-1.989 1.282,-2.966 0.327,-0.707 0.683,-1.405 1.083,-2.075 0.482,-0.809 1.014,-1.589 1.542,-2.37 0.311,-0.46 0.618,-0.924 1.002,-1.333 0.25,-0.266 0.45,-0.58 0.692,-0.855 0.295,-0.337 0.608,-0.66 0.92,-0.983 0.326,-0.335 0.647,-0.677 0.994,-0.989 0.458,-0.413 0.936,-0.807 1.414,-1.198 0.417,-0.341 0.841,-0.672 1.271,-0.997 0.701,-0.533 1.474,-0.956 2.238,-1.386 C -8.037,1.962 -7.41,1.667 -6.781,1.381 -6.35,1.185 -5.903,1.014 -5.45,0.877 -4.765,0.673 -4.083,0.458 -3.372,0.33 -2.37,0.148 -1.37,0.006 -0.352,0 -0.235,-0.001 -0.118,0 0,0 m 0.038,-0.432 c -0.386,0 -0.77,-0.005 -1.155,0.003 -0.197,0.003 -0.394,0.025 -0.59,0.05 -0.588,0.075 -1.179,0.134 -1.762,0.24 -0.805,0.147 -1.593,0.373 -2.366,0.641 -0.501,0.173 -1.003,0.347 -1.491,0.552 -0.398,0.167 -0.781,0.369 -1.159,0.577 -0.557,0.307 -1.115,0.616 -1.651,0.956 -0.614,0.39 -1.225,0.789 -1.799,1.233 -0.579,0.45 -1.119,0.952 -1.661,1.448 -0.483,0.441 -0.952,0.901 -1.417,1.364 -0.337,0.335 -0.667,0.678 -0.979,1.036 -0.3,0.345 -0.572,0.714 -0.858,1.071 -0.658,0.82 -1.238,1.693 -1.79,2.586 -0.329,0.534 -0.616,1.093 -0.941,1.631 -0.387,0.64 -0.674,1.329 -0.993,2.002 -0.253,0.535 -0.482,1.084 -0.689,1.638 -0.321,0.857 -0.641,1.716 -0.912,2.589 -0.283,0.906 -0.514,1.829 -0.755,2.748 -0.1,0.38 -0.174,0.767 -0.246,1.154 -0.115,0.616 -0.233,1.232 -0.322,1.851 -0.128,0.906 -0.25,1.813 -0.341,2.723 -0.079,0.793 -0.122,1.589 -0.163,2.385 -0.023,0.449 -0.013,0.899 -0.012,1.349 10e-4,0.447 0.012,0.896 0.015,1.344 0.004,0.495 -0.004,0.99 0.011,1.485 0.012,0.394 0.048,0.788 0.079,1.181 0.033,0.411 0.061,0.823 0.111,1.232 0.064,0.535 0.142,1.068 0.221,1.601 0.064,0.426 0.135,0.851 0.211,1.275 0.125,0.705 0.249,1.411 0.388,2.113 0.196,0.978 0.471,1.936 0.759,2.889 0.297,0.979 0.634,1.943 1.004,2.898 0.284,0.729 0.595,1.442 0.96,2.134 0.091,0.175 0.15,0.366 0.238,0.542 0.289,0.577 0.573,1.157 0.882,1.722 0.219,0.401 0.47,0.786 0.719,1.169 0.313,0.481 0.64,0.953 0.96,1.428 0.432,0.642 0.926,1.236 1.412,1.836 0.249,0.308 0.562,0.56 0.8,0.868 0.354,0.459 0.8,0.823 1.179,1.254 0.253,0.288 0.553,0.536 0.843,0.791 0.372,0.325 0.749,0.645 1.134,0.953 0.349,0.281 0.705,0.554 1.071,0.811 0.455,0.32 0.915,0.633 1.388,0.926 0.487,0.302 0.984,0.589 1.495,0.854 0.704,0.367 1.436,0.662 2.176,0.94 0.865,0.325 1.754,0.583 2.668,0.739 0.557,0.096 1.116,0.198 1.678,0.248 0.616,0.055 1.237,0.064 1.857,0.072 0.501,0.007 1.004,-0.006 1.504,-0.033 0.313,-0.018 0.623,-0.084 0.935,-0.119 0.733,-0.082 1.449,-0.238 2.161,-0.426 0.888,-0.235 1.751,-0.541 2.589,-0.915 0.598,-0.268 1.189,-0.554 1.775,-0.845 0.217,-0.107 0.419,-0.244 0.622,-0.377 0.569,-0.374 1.143,-0.74 1.7,-1.131 0.477,-0.334 0.935,-0.693 1.379,-1.074 0.448,-0.385 0.908,-0.755 1.322,-1.178 0.433,-0.442 0.904,-0.846 1.324,-1.299 0.475,-0.511 0.913,-1.059 1.366,-1.591 0.46,-0.542 0.854,-1.132 1.243,-1.726 0.289,-0.443 0.584,-0.884 0.863,-1.334 0.289,-0.463 0.585,-0.919 0.819,-1.417 0.34,-0.72 0.724,-1.421 1.079,-2.135 0.16,-0.321 0.302,-0.653 0.444,-0.983 0.141,-0.33 0.286,-0.659 0.407,-0.997 0.215,-0.6 0.41,-1.208 0.619,-1.81 0.335,-0.968 0.614,-1.953 0.832,-2.952 0.224,-1.035 0.438,-2.073 0.623,-3.116 0.131,-0.741 0.216,-1.49 0.303,-2.237 0.069,-0.597 0.096,-1.198 0.165,-1.796 0.164,-1.424 0.102,-2.854 0.095,-4.282 -0.004,-0.59 -0.031,-1.181 -0.076,-1.77 C 24.279,28.354 24.217,27.551 24.115,26.753 23.959,25.543 23.772,24.337 23.51,23.145 23.36,22.462 23.246,21.771 23.055,21.101 22.741,19.997 22.39,18.904 22.031,17.815 21.875,17.34 21.665,16.882 21.472,16.42 21.274,15.948 21.075,15.476 20.859,15.012 20.628,14.515 20.381,14.026 20.134,13.538 19.923,13.121 19.701,12.71 19.483,12.297 19.446,12.226 19.41,12.153 19.365,12.086 18.947,11.448 18.535,10.805 18.104,10.176 17.637,9.496 17.174,8.812 16.621,8.196 16.244,7.775 15.88,7.343 15.506,6.921 15.28,6.666 15.058,6.406 14.812,6.172 14.515,5.887 14.195,5.628 13.886,5.357 13.435,4.962 12.99,4.559 12.531,4.173 12.25,3.936 11.952,3.719 11.657,3.5 11.5,3.383 11.327,3.286 11.17,3.167 10.574,2.715 9.92,2.355 9.269,1.997 8.641,1.651 7.997,1.329 7.34,1.04 6.445,0.646 5.522,0.314 4.568,0.088 3.783,-0.099 2.993,-0.266 2.185,-0.327 1.854,-0.351 1.526,-0.413 1.195,-0.428 0.81,-0.446 0.424,-0.432 0.038,-0.432 Z"
             style="fill:#575756;fill-opacity:1;fill-rule:evenodd;stroke:none"
             id="path246"
             inkscape:connector-curvature="0" /></g><g
           id="g248"
           transform="translate(51.4052,33.6678)"><path
             d="M 0,0 C -0.2,-0.22 -0.2,-0.22 -0.026,-0.277 -0.019,-0.197 -0.012,-0.123 0,0 m -0.179,11.497 c -0.321,-0.315 -0.615,-0.602 -0.807,-1.032 0.348,0.175 0.765,0.708 0.807,1.032 m -7.493,3.678 c 0.25,0.356 0.488,0.715 0.86,1.008 0.118,-0.128 0.225,-0.232 0.317,-0.349 0.089,-0.111 0.181,-0.183 0.336,-0.181 0.391,0.005 0.515,0.416 0.418,0.681 -0.161,0.441 -0.681,0.606 -1.087,0.362 -0.267,-0.161 -0.418,-0.413 -0.572,-0.658 -0.161,-0.258 -0.252,-0.55 -0.272,-0.863 m 2.36,-8.548 c 0.063,0.106 0.13,0.212 0.191,0.32 0.195,0.346 0.636,0.426 0.954,0.178 0.066,-0.051 0.162,-0.103 0.237,-0.096 0.279,0.026 0.525,0.134 0.667,0.391 0.196,0.354 0.122,0.685 -0.205,0.923 C -3.537,8.392 -3.632,8.418 -3.717,8.426 -3.994,8.447 -4.244,8.354 -4.489,8.231 -4.68,8.135 -4.757,7.948 -4.867,7.788 -5.106,7.438 -5.261,7.055 -5.312,6.627 m 1.778,-10.416 c 0.125,0.247 0.282,0.462 0.486,0.656 0.235,0.223 0.491,0.387 0.804,0.458 0.335,0.076 0.336,0.071 0.523,-0.226 0.014,-0.023 0.025,-0.051 0.044,-0.068 0.123,-0.11 0.257,-0.202 0.434,-0.164 0.154,0.034 0.206,0.163 0.249,0.293 0.099,0.293 0.009,0.644 -0.226,0.833 -0.28,0.226 -0.61,0.287 -0.937,0.16 -0.775,-0.302 -1.354,-0.988 -1.377,-1.942 m -15.133,9.973 c 0.007,0.104 0.02,0.146 0.011,0.183 -0.131,0.566 -0.267,1.127 -0.603,1.62 -0.137,0.201 -0.301,0.349 -0.512,0.455 -0.459,0.23 -0.96,0.025 -1.125,-0.454 -0.158,-0.459 0.282,-0.942 0.7,-0.863 0.166,0.031 0.269,0.125 0.369,0.245 0.146,0.172 0.289,0.161 0.408,-0.027 0.166,-0.264 0.323,-0.534 0.49,-0.798 0.069,-0.108 0.151,-0.209 0.262,-0.361 m 2.406,8.624 c 0.008,0.102 0.032,0.191 0.018,0.275 -0.103,0.644 -0.317,1.244 -0.699,1.783 -0.162,0.226 -0.363,0.324 -0.637,0.323 -0.414,-0.001 -0.77,-0.313 -0.778,-0.701 -0.009,-0.419 0.339,-0.836 0.722,-0.852 0.105,-0.005 0.223,-0.003 0.316,0.039 0.207,0.094 0.35,0.007 0.471,-0.136 0.195,-0.229 0.376,-0.468 0.587,-0.731 m -4.502,-20.252 c 0.026,0.003 0.052,0.007 0.077,0.011 0.008,0.157 0.029,0.314 0.024,0.471 -0.013,0.411 0.019,0.834 -0.07,1.229 -0.109,0.484 -0.276,0.96 -0.505,1.412 -0.236,0.465 -0.609,0.702 -1.102,0.751 -0.556,0.055 -0.805,-0.175 -0.911,-0.718 -0.046,-0.243 0.043,-0.455 0.243,-0.613 0.266,-0.212 0.551,-0.247 0.852,-0.089 0.166,0.086 0.301,0.063 0.444,-0.054 0.262,-0.217 0.44,-0.485 0.579,-0.795 0.168,-0.375 0.234,-0.767 0.289,-1.167 0.02,-0.147 0.053,-0.292 0.08,-0.438 m 10.653,28.126 c 0.019,0.14 -0.057,0.235 -0.158,0.319 -0.328,0.282 -0.71,0.442 -1.134,0.511 -0.465,0.074 -0.931,0.032 -1.389,-0.031 -0.365,-0.05 -0.707,-0.2 -0.998,-0.441 -0.094,-0.078 -0.206,-0.148 -0.215,-0.287 1.004,-0.844 2.771,-0.886 3.894,-0.071 m -2.035,5.351 c 0.049,0.063 0.099,0.115 0.133,0.176 0.222,0.392 0.564,0.623 0.98,0.775 0.257,0.095 0.515,0.145 0.788,0.142 0.232,-0.002 0.312,0.074 0.307,0.306 -0.01,0.51 -0.249,0.883 -0.706,1.113 -0.031,0.016 -0.076,0.017 -0.098,0.041 -0.059,0.064 -0.136,0.129 -0.156,0.206 -0.045,0.164 -0.07,0.334 -0.081,0.503 -0.032,0.517 -0.275,0.924 -0.655,1.251 -0.322,0.278 -0.696,0.287 -0.969,0.024 -0.156,-0.15 -0.239,-0.353 -0.277,-0.57 -0.066,-0.381 -0.241,-0.693 -0.583,-0.893 -0.368,-0.214 -0.528,-0.572 -0.653,-0.952 -0.066,-0.198 -0.036,-0.25 0.174,-0.296 0.423,-0.092 0.731,-0.37 1.032,-0.648 0.198,-0.183 0.325,-0.426 0.396,-0.693 0.056,-0.206 0.168,-0.371 0.368,-0.485 m -11.626,-9.466 c 0.011,-0.02 0.022,-0.04 0.034,-0.06 0.095,0.04 0.188,0.086 0.286,0.119 0.176,0.062 0.352,0.146 0.535,0.167 0.302,0.037 0.61,0.048 0.914,0.039 0.469,-0.016 0.901,-0.191 1.284,-0.441 0.281,-0.183 0.522,-0.436 0.752,-0.684 0.327,-0.354 0.702,-0.552 1.19,-0.492 0.329,0.04 0.605,0.194 0.768,0.477 0.194,0.339 0.239,0.708 0.089,1.086 -0.254,0.641 -0.518,1.279 -0.754,1.927 -0.144,0.397 -0.195,0.812 -0.149,1.241 0.051,0.479 0.189,0.929 0.375,1.369 0.018,0.044 0.021,0.093 0.032,0.15 -0.049,0 -0.077,0.007 -0.101,-0.001 -0.374,-0.12 -0.687,-0.312 -0.806,-0.717 -0.061,-0.207 -0.178,-0.345 -0.394,-0.396 -0.096,-0.022 -0.186,-0.067 -0.276,-0.107 -0.048,-0.021 -0.105,-0.045 -0.132,-0.085 -0.169,-0.252 -0.286,-0.519 -0.191,-0.834 0.051,-0.171 0.107,-0.344 0.133,-0.52 0.038,-0.253 0.182,-0.419 0.377,-0.564 0.534,-0.395 0.816,-0.939 0.928,-1.582 0.017,-0.098 -0.005,-0.175 -0.106,-0.222 -0.095,-0.043 -0.149,0.002 -0.212,0.062 -0.437,0.425 -0.759,0.925 -0.995,1.485 -0.036,0.085 -0.104,0.174 -0.183,0.219 -0.513,0.294 -1.052,0.335 -1.6,0.106 -0.203,-0.085 -0.373,-0.213 -0.417,-0.458 -0.025,-0.143 -0.13,-0.217 -0.274,-0.263 -0.522,-0.172 -0.882,-0.526 -1.107,-1.021 m 1.789,-3.95 c -0.594,-0.1 -1.039,-0.391 -1.402,-0.794 -0.426,-0.474 -0.621,-1.064 -0.689,-1.688 -0.026,-0.232 0.017,-0.455 0.278,-0.611 0.366,-0.22 0.709,-0.486 1.034,-0.767 0.417,-0.36 0.699,-0.834 0.984,-1.3 0.057,-0.093 0.071,-0.19 -0.012,-0.273 -0.083,-0.084 -0.184,-0.059 -0.274,-0.012 -0.095,0.049 -0.182,0.115 -0.273,0.172 -0.462,0.284 -0.885,0.617 -1.222,1.043 -0.226,0.286 -0.422,0.597 -0.612,0.909 -0.114,0.187 -0.278,0.242 -0.472,0.251 -0.217,0.009 -0.394,-0.089 -0.569,-0.211 -0.323,-0.226 -0.489,-0.598 -0.392,-0.975 0.037,-0.141 0.011,-0.238 -0.116,-0.285 -0.232,-0.087 -0.412,-0.242 -0.607,-0.385 -0.249,-0.184 -0.3,-0.464 -0.443,-0.709 0.053,-0.016 0.07,-0.026 0.086,-0.024 0.026,0.003 0.053,0.011 0.076,0.023 0.394,0.21 0.814,0.321 1.254,0.387 0.41,0.061 0.808,0.024 1.198,-0.082 0.498,-0.137 0.937,-0.39 1.355,-0.697 0.608,-0.446 1.215,-0.387 1.618,0.246 0.256,0.402 0.237,0.884 -0.062,1.222 -0.353,0.4 -0.653,0.83 -0.864,1.321 -0.214,0.497 -0.337,1.011 -0.277,1.557 0.015,0.142 0.047,0.283 0.05,0.425 0.006,0.293 0.081,0.566 0.196,0.833 0.055,0.127 0.097,0.262 0.157,0.424 m 21.869,3.506 c -0.02,0.067 -0.024,0.111 -0.045,0.145 -0.261,0.413 -0.603,0.736 -1.069,0.901 -0.159,0.058 -0.255,0.136 -0.306,0.302 -0.069,0.228 -0.228,0.379 -0.463,0.448 -0.49,0.145 -0.969,0.146 -1.444,-0.065 C -3.556,19.803 -3.631,19.747 -3.681,19.627 -3.926,19.04 -4.338,18.564 -4.74,18.082 -4.807,18 -4.886,17.945 -4.997,18.004 c -0.109,0.06 -0.105,0.164 -0.085,0.261 0.126,0.618 0.41,1.138 0.933,1.516 0.17,0.122 0.357,0.249 0.409,0.477 0.059,0.262 0.132,0.523 0.167,0.788 0.051,0.383 -0.157,0.706 -0.514,0.846 -0.083,0.033 -0.179,0.044 -0.252,0.088 -0.079,0.05 -0.186,0.118 -0.202,0.194 -0.073,0.357 -0.345,0.534 -0.608,0.718 -0.08,0.056 -0.189,0.068 -0.325,0.114 0.023,-0.098 0.029,-0.149 0.047,-0.195 0.174,-0.446 0.28,-0.903 0.298,-1.385 0.029,-0.739 -0.15,-1.423 -0.496,-2.067 -0.224,-0.416 -0.339,-0.865 -0.459,-1.316 -0.124,-0.461 0.137,-0.932 0.53,-1.16 0.535,-0.309 1.179,-0.097 1.56,0.362 0.208,0.25 0.429,0.482 0.697,0.664 0.486,0.33 1.015,0.536 1.614,0.508 0.412,-0.018 0.823,-0.045 1.213,-0.202 0.104,-0.042 0.219,-0.058 0.357,-0.092 m 0.412,-6.34 C 0.251,11.667 0.206,11.563 0.167,11.457 0.137,11.373 0.13,11.28 0.092,11.202 -0.197,10.618 -0.591,10.15 -1.257,9.983 -1.349,9.96 -1.429,9.934 -1.504,10.013 c -0.08,0.084 -0.04,0.166 0,0.249 0.21,0.436 0.484,0.829 0.82,1.176 0.181,0.187 0.39,0.346 0.576,0.527 0.06,0.057 0.126,0.144 0.129,0.22 0.015,0.515 -0.131,1.001 -0.38,1.44 -0.285,0.502 -0.726,0.862 -1.24,1.124 -0.112,0.057 -0.227,0.157 -0.381,0.08 0.227,-0.57 0.333,-1.157 0.306,-1.767 -0.044,-1.015 -0.441,-1.862 -1.16,-2.583 -0.499,-0.501 -0.515,-0.816 -0.263,-1.383 0.151,-0.341 0.441,-0.53 0.821,-0.562 0.293,-0.026 0.542,0.1 0.787,0.236 0.219,0.121 0.433,0.255 0.661,0.357 C -0.4,9.32 0.046,9.438 0.522,9.457 1.111,9.48 1.654,9.312 2.196,9.123 2.274,9.096 2.356,9.076 2.454,9.048 2.358,9.512 1.981,9.989 1.572,10.13 c -0.274,0.095 -0.385,0.263 -0.374,0.537 0,0.008 0,0.018 0,0.026 -0.017,0.595 -0.27,0.914 -0.899,1.09 M -25.957,3.735 c -0.269,-0.27 -0.387,-0.58 -0.459,-0.915 -0.004,-0.022 0.02,-0.05 0.023,-0.076 0.06,-0.451 0.315,-0.764 0.682,-1.012 0.253,-0.17 0.496,-0.359 0.721,-0.563 0.41,-0.371 0.742,-0.805 0.928,-1.333 0.081,-0.228 0.144,-0.463 0.2,-0.699 0.039,-0.167 -0.035,-0.364 -0.131,-0.411 -0.213,-0.105 -0.534,0.031 -0.594,0.263 -0.036,0.137 -0.042,0.282 -0.068,0.423 -0.05,0.262 -0.085,0.529 -0.161,0.784 -0.08,0.265 -0.177,0.539 -0.381,0.734 -0.207,0.196 -0.44,0.371 -0.679,0.528 -0.193,0.127 -0.401,0.242 -0.645,0.254 -0.291,0.014 -0.57,-0.057 -0.763,-0.269 -0.238,-0.262 -0.49,-0.544 -0.346,-0.955 0.008,-0.025 0.006,-0.054 0.008,-0.081 0.022,-0.237 -0.053,-0.325 -0.282,-0.372 -0.166,-0.034 -0.332,-0.075 -0.488,-0.14 -0.502,-0.211 -0.855,-0.581 -1.076,-1.075 -0.126,-0.282 -0.196,-0.579 -0.184,-0.923 0.171,0.145 0.316,0.263 0.456,0.386 0.596,0.517 1.305,0.806 2.072,0.886 0.961,0.101 1.845,-0.144 2.621,-0.76 0.272,-0.216 0.606,-0.349 0.981,-0.167 0.126,0.062 0.185,0.163 0.258,0.261 0.329,0.436 0.438,0.915 0.284,1.445 -0.106,0.364 -0.312,0.668 -0.585,0.923 -0.547,0.51 -0.91,1.127 -1.088,1.849 -0.061,0.25 -0.086,0.511 -0.103,0.77 -0.03,0.459 0.033,0.908 0.205,1.339 0.1,0.251 0.198,0.503 0.308,0.777 -0.368,-0.021 -0.692,-0.073 -0.939,-0.333 -0.435,-0.456 -0.583,-0.994 -0.424,-1.602 -0.139,-0.127 -0.251,-0.111 -0.351,0.064 M 0.027,5.745 C 0.08,5.548 0.128,5.359 0.182,5.172 0.285,4.817 0.344,4.457 0.323,4.086 0.314,3.926 0.293,3.765 0.27,3.606 0.251,3.474 0.241,3.336 0.191,3.214 0.062,2.901 -0.094,2.598 -0.227,2.286 -0.407,1.862 -0.653,1.479 -0.943,1.125 -1.44,0.519 -1.514,-0.072 -1.184,-0.688 c 0.315,-0.588 1.096,-0.832 1.562,-0.674 0.302,0.101 0.57,0.254 0.831,0.433 0.228,0.157 0.466,0.317 0.725,0.405 0.422,0.142 0.884,0.128 1.307,0.048 0.451,-0.086 0.89,-0.282 1.2,-0.671 0.092,-0.115 0.223,-0.2 0.369,-0.328 0.018,0.128 0.058,0.221 0.038,0.298 C 4.785,-0.936 4.732,-0.683 4.616,-0.466 4.395,-0.054 4.029,0.198 3.589,0.354 3.329,0.446 3.325,0.477 3.398,0.751 3.476,1.047 3.387,1.261 3.116,1.408 3.046,1.447 2.969,1.476 2.892,1.5 2.319,1.674 1.779,1.608 1.274,1.275 0.755,0.934 0.402,0.484 0.323,-0.152 0.313,-0.239 0.29,-0.331 0.251,-0.409 0.164,-0.588 -0.054,-0.658 -0.263,-0.588 c -0.168,0.056 -0.249,0.205 -0.213,0.413 0.012,0.069 0.038,0.14 0.073,0.201 C -0.102,0.543 0.313,0.961 0.772,1.34 1.054,1.571 1.381,1.755 1.581,2.078 2.018,2.783 2.13,3.526 1.829,4.313 1.788,4.42 1.72,4.518 1.671,4.623 1.442,5.121 1.052,5.449 0.559,5.658 0.406,5.723 0.252,5.813 0.027,5.745 m -7.523,22.972 c -0.034,0.055 -0.046,0.092 -0.07,0.111 -0.536,0.4 -1.212,0.574 -1.882,0.165 -0.254,-0.156 -0.495,-0.243 -0.785,-0.15 -0.042,0.014 -0.091,0.017 -0.133,0.009 -0.652,-0.129 -1.209,-0.393 -1.518,-1.032 -0.075,-0.153 -0.075,-0.274 0.003,-0.427 0.098,-0.189 0.189,-0.394 0.223,-0.601 0.065,-0.398 0.012,-0.788 -0.233,-1.128 -0.096,-0.134 -0.299,-0.123 -0.37,0.027 -0.076,0.161 -0.141,0.332 -0.181,0.505 -0.079,0.34 -0.032,0.682 0.064,1.009 0.071,0.236 0.054,0.439 -0.089,0.635 -0.047,0.066 -0.086,0.137 -0.132,0.203 -0.217,0.316 -0.533,0.521 -0.828,0.755 -0.495,0.394 -1.082,0.504 -1.668,0.513 -0.566,0.007 -1.103,-0.217 -1.604,-0.491 -0.134,-0.073 -0.242,-0.173 -0.33,-0.325 0.17,-0.027 0.316,-0.069 0.463,-0.072 0.805,-0.014 1.438,-0.391 2.001,-0.925 0.495,-0.47 0.687,-1.079 0.784,-1.729 0.051,-0.342 0.147,-0.666 0.323,-0.965 0.395,-0.67 1.185,-1.11 1.994,-0.717 0.327,0.16 0.596,0.382 0.732,0.745 0.102,0.274 0.139,0.553 0.151,0.841 0.024,0.546 0.176,1.065 0.456,1.527 0.208,0.342 0.493,0.644 0.826,0.879 0.209,0.147 0.41,0.303 0.667,0.394 0.36,0.127 0.73,0.167 1.136,0.244 m 4.304,-43.469 c -0.013,0.126 -0.021,0.213 -0.032,0.302 -0.063,0.533 -0.125,1.068 -0.189,1.603 -0.043,0.364 -0.087,0.728 -0.135,1.093 -0.055,0.417 -0.12,0.832 -0.172,1.25 -0.053,0.434 -0.089,0.871 -0.149,1.304 -0.057,0.408 -0.138,0.811 -0.206,1.217 -0.15,0.892 -0.298,1.785 -0.448,2.677 -0.076,0.451 -0.157,0.899 -0.234,1.348 -0.073,0.424 -0.138,0.848 -0.216,1.27 -0.085,0.458 -0.186,0.913 -0.273,1.371 -0.074,0.395 -0.137,0.793 -0.209,1.19 -0.067,0.369 -0.147,0.736 -0.208,1.107 -0.087,0.54 -0.146,1.084 -0.244,1.622 -0.159,0.873 -0.34,1.742 -0.513,2.612 -0.045,0.228 -0.096,0.456 -0.143,0.684 -0.054,0.261 -0.103,0.524 -0.159,0.785 -0.076,0.349 -0.165,0.696 -0.236,1.047 -0.11,0.543 -0.203,1.089 -0.315,1.632 -0.145,0.71 -0.314,1.415 -0.453,2.127 -0.139,0.716 -0.36,1.409 -0.625,2.083 -0.396,1.01 -0.845,2 -1.431,2.919 -0.221,0.347 -0.453,0.689 -0.699,1.02 -0.265,0.36 -0.546,0.71 -0.831,1.056 -0.112,0.137 -0.233,0.294 -0.386,0.361 -0.161,0.071 -0.198,0.164 -0.198,0.305 0.001,0.625 0.006,1.251 0.008,1.876 0,0.072 0.006,0.145 -0.005,0.215 -0.02,0.149 -0.067,0.17 -0.274,0.175 -0.134,0.002 -0.205,-0.045 -0.206,-0.184 -0.003,-0.224 -0.01,-0.448 -0.01,-0.672 10e-4,-0.466 0.002,-0.933 0.01,-1.4 0.003,-0.201 -0.055,-0.338 -0.265,-0.411 -0.112,-0.039 -0.22,-0.131 -0.294,-0.227 -0.401,-0.527 -0.794,-1.06 -1.184,-1.595 -0.185,-0.254 -0.365,-0.512 -0.532,-0.778 -0.128,-0.205 -0.221,-0.431 -0.345,-0.638 -0.386,-0.649 -0.709,-1.328 -0.966,-2.036 -0.261,-0.717 -0.488,-1.442 -0.653,-2.189 -0.227,-1.031 -0.494,-2.052 -0.732,-3.079 -0.27,-1.17 -0.528,-2.341 -0.789,-3.512 -0.099,-0.446 -0.197,-0.893 -0.288,-1.34 -0.105,-0.518 -0.201,-1.038 -0.307,-1.556 -0.146,-0.718 -0.304,-1.434 -0.445,-2.152 -0.092,-0.465 -0.156,-0.935 -0.244,-1.399 -0.176,-0.932 -0.364,-1.86 -0.539,-2.791 -0.115,-0.607 -0.214,-1.217 -0.319,-1.826 -0.076,-0.433 -0.148,-0.865 -0.221,-1.299 -0.121,-0.723 -0.244,-1.445 -0.364,-2.169 -0.078,-0.469 -0.158,-0.937 -0.228,-1.407 -0.103,-0.692 -0.194,-1.386 -0.296,-2.077 -0.077,-0.531 -0.167,-1.06 -0.245,-1.59 -0.03,-0.208 0.036,-0.257 0.261,-0.226 0.995,0.136 1.987,0.286 2.983,0.401 0.837,0.096 1.678,0.15 2.518,0.218 0.314,0.026 0.628,0.039 0.941,0.061 0.439,0.032 0.876,0.088 1.315,0.098 0.747,0.016 1.495,0.014 2.241,10e-4 0.745,-0.013 1.488,0.039 2.233,-0.043 0.526,-0.058 1.059,-0.039 1.589,-0.064 0.348,-0.016 0.696,-0.05 1.045,-0.073 0.105,-0.007 0.211,-0.009 0.317,-0.011 0.072,-0.001 0.144,0.01 0.214,0.003 0.195,-0.023 0.389,-0.056 0.583,-0.08 0.551,-0.07 1.101,-0.144 1.652,-0.206 0.166,-0.019 0.336,-0.003 0.545,-0.003 m -24.752,15.1 c 0,0.11 -0.003,0.199 10e-4,0.287 0.009,0.319 0.089,0.597 0.294,0.869 0.244,0.325 0.567,0.413 0.921,0.486 0.051,0.011 0.104,0.02 0.155,0.035 0.015,0.004 0.026,0.023 0.06,0.054 -0.024,0.073 -0.048,0.157 -0.079,0.238 -0.117,0.305 -0.143,0.613 -0.022,0.921 0.114,0.292 0.218,0.593 0.506,0.772 0.115,0.072 0.16,0.174 0.168,0.315 0.03,0.5 0.26,0.911 0.624,1.244 0.095,0.087 0.231,0.132 0.354,0.185 0.315,0.137 0.645,0.145 0.979,0.104 0.144,-0.017 0.186,-0.082 0.148,-0.221 -0.023,-0.085 -0.057,-0.175 -0.111,-0.241 -0.254,-0.313 -0.318,-0.696 -0.431,-1.063 -0.24,-0.772 -0.065,-1.499 0.259,-2.195 0.215,-0.465 0.537,-0.865 0.913,-1.22 0.496,-0.469 0.65,-1.055 0.557,-1.717 -0.02,-0.14 -0.049,-0.28 -0.075,-0.42 0.25,-0.039 0.479,-0.069 0.706,-0.112 0.468,-0.087 0.773,-0.395 1.011,-0.78 0.237,-0.386 0.364,-0.816 0.478,-1.25 0.024,-0.093 0.06,-0.182 0.096,-0.291 0.162,0.102 0.145,0.252 0.17,0.371 0.117,0.544 0.222,1.09 0.323,1.637 0.117,0.634 0.218,1.27 0.341,1.903 0.115,0.589 0.253,1.175 0.377,1.762 0.129,0.615 0.252,1.231 0.38,1.846 0.021,0.106 0.056,0.208 0.081,0.313 0.111,0.462 0.108,0.918 -0.044,1.377 -0.127,0.387 -0.327,0.735 -0.515,1.091 -0.025,0.046 -0.069,0.081 -0.109,0.126 -0.33,-0.178 -0.678,-0.177 -1.026,-0.108 -0.338,0.066 -0.559,0.279 -0.661,0.606 -0.055,0.178 -0.095,0.36 -0.145,0.554 -0.028,0 -0.068,0.012 -0.095,-0.002 -0.244,-0.123 -0.506,-0.102 -0.767,-0.112 -0.305,-0.013 -0.56,0.102 -0.798,0.27 -0.3,0.212 -0.569,0.473 -0.929,0.589 -0.463,0.149 -0.923,0.267 -1.424,0.186 -0.519,-0.084 -0.98,-0.273 -1.402,-0.575 -0.044,-0.032 -0.09,-0.06 -0.137,-0.087 -0.166,-0.091 -0.283,-0.034 -0.298,0.154 -0.044,0.549 0.09,1.059 0.418,1.495 0.147,0.195 0.37,0.339 0.576,0.479 0.137,0.092 0.201,0.19 0.194,0.351 -0.036,0.783 0.779,1.376 1.423,1.257 0.034,-0.007 0.07,0.004 0.113,0.007 0.028,0.235 0.049,0.464 0.084,0.693 0.071,0.466 0.261,0.879 0.518,1.277 0.342,0.528 0.848,0.812 1.398,1.034 0.194,0.078 0.421,0.084 0.635,0.096 0.164,0.011 0.225,-0.088 0.162,-0.249 -0.09,-0.234 -0.211,-0.458 -0.296,-0.693 -0.275,-0.769 -0.31,-1.546 -0.004,-2.314 0.123,-0.307 0.273,-0.607 0.441,-0.891 0.107,-0.183 0.26,-0.343 0.411,-0.494 0.323,-0.321 0.501,-0.695 0.477,-1.156 -0.005,-0.105 -0.001,-0.211 -0.001,-0.331 0.092,0.004 0.144,10e-4 0.194,0.01 0.525,0.095 1.089,-0.156 1.355,-0.62 0.151,-0.264 0.301,-0.533 0.417,-0.814 0.084,-0.204 0.112,-0.431 0.165,-0.649 0.021,-0.09 0.043,-0.18 0.066,-0.27 0.018,-0.002 0.037,-0.005 0.055,-0.007 0.031,0.07 0.072,0.137 0.089,0.209 0.138,0.576 0.272,1.152 0.407,1.728 0.184,0.786 0.367,1.571 0.554,2.355 0.146,0.61 0.293,1.219 0.45,1.825 0.077,0.294 0.172,0.586 0.274,0.873 0.124,0.349 0.017,0.674 -0.09,0.995 -0.06,0.177 -0.168,0.335 -0.255,0.503 -0.047,0.091 -0.128,0.134 -0.224,0.112 -0.259,-0.061 -0.498,0.035 -0.741,0.086 -0.095,0.02 -0.188,0.097 -0.262,0.168 -0.135,0.129 -0.275,0.261 -0.377,0.416 -0.168,0.251 -0.148,0.548 -0.143,0.836 0.002,0.061 10e-4,0.121 10e-4,0.213 -0.104,0.004 -0.2,0.015 -0.294,0.01 -0.442,-0.027 -0.821,0.079 -1.139,0.423 -0.252,0.274 -0.489,0.58 -0.835,0.753 -0.231,0.116 -0.463,0.238 -0.708,0.315 -0.489,0.153 -0.982,0.102 -1.443,-0.104 -0.264,-0.118 -0.496,-0.312 -0.741,-0.474 -0.051,-0.035 -0.092,-0.088 -0.146,-0.118 -0.139,-0.078 -0.257,-0.018 -0.266,0.136 -0.034,0.613 0.14,1.166 0.561,1.607 0.198,0.208 0.426,0.413 0.732,0.481 0.152,0.033 0.238,0.123 0.283,0.286 0.05,0.185 0.186,0.321 0.365,0.406 0.514,0.246 1.042,0.33 1.596,0.156 0.041,-0.013 0.087,-0.011 0.156,-0.019 0,0.079 0.01,0.149 -0.003,0.214 -0.026,0.131 -0.065,0.26 -0.1,0.39 -0.132,0.491 0.067,1.034 0.486,1.299 0.081,0.051 0.185,0.071 0.28,0.093 0.146,0.033 0.238,0.113 0.277,0.26 0.168,0.638 0.693,0.792 1.243,0.911 0.195,0.042 0.338,-0.011 0.395,-0.234 -0.083,-0.147 -0.17,-0.304 -0.26,-0.459 -0.265,-0.457 -0.344,-0.972 -0.354,-1.478 -0.008,-0.424 0.114,-0.851 0.292,-1.252 0.208,-0.467 0.411,-0.938 0.584,-1.419 0.142,-0.395 0.166,-0.806 0.026,-1.214 -0.023,-0.066 -0.037,-0.135 -0.059,-0.215 0.065,-0.022 0.114,-0.052 0.161,-0.052 0.491,0.007 0.8,-0.255 1.019,-0.664 0.279,-0.518 0.516,-1.048 0.523,-1.652 0,-0.04 0.026,-0.079 0.045,-0.133 0.167,0.096 0.218,0.253 0.29,0.39 0.244,0.459 0.449,0.945 0.735,1.376 0.34,0.514 0.672,1.04 1.112,1.486 0.25,0.254 0.435,0.578 0.702,0.807 0.223,0.193 0.258,0.398 0.256,0.655 -0.008,0.51 -10e-4,1.022 -0.003,1.532 -10e-4,0.097 -0.014,0.194 -0.02,0.29 -0.139,0.037 -0.257,0.081 -0.379,0.101 -0.335,0.054 -0.588,0.251 -0.841,0.455 -0.283,0.228 -0.278,0.904 0.014,1.088 0.235,0.147 0.437,0.343 0.72,0.41 0.138,0.031 0.265,0.108 0.435,0.181 -0.056,0.062 -0.094,0.113 -0.142,0.154 -0.337,0.284 -0.687,0.564 -0.823,1.006 -0.086,0.281 -0.155,0.573 -0.192,0.865 -0.098,0.785 -0.505,1.376 -1.13,1.821 -0.626,0.447 -1.33,0.608 -2.094,0.463 -0.079,-0.015 -0.162,-0.028 -0.241,-0.017 -0.158,0.022 -0.214,0.154 -0.107,0.271 0.152,0.165 0.315,0.319 0.483,0.467 0.326,0.288 0.712,0.471 1.123,0.604 0.067,0.021 0.13,0.063 0.188,0.104 0.309,0.218 0.656,0.326 1.029,0.369 0.254,0.027 0.296,0.048 0.337,0.302 0.067,0.419 0.282,0.752 0.555,1.054 0.077,0.086 0.183,0.144 0.281,0.208 0.197,0.129 0.327,0.297 0.381,0.531 0.04,0.174 0.1,0.343 0.161,0.511 0.166,0.457 0.75,0.743 1.215,0.627 0.2,-0.051 0.393,-0.181 0.556,-0.315 0.5,-0.418 0.795,-0.943 0.749,-1.62 -0.012,-0.174 0.058,-0.267 0.227,-0.345 0.434,-0.2 0.698,-0.551 0.784,-1.026 0.026,-0.141 0.043,-0.283 0.069,-0.458 0.091,0.015 0.181,0.013 0.258,0.043 0.425,0.169 0.846,0.109 1.268,-0.01 0.507,-0.143 0.845,-0.489 1.108,-0.922 0.097,-0.159 0.043,-0.267 -0.15,-0.302 -0.203,-0.036 -0.407,-0.065 -0.611,-0.093 -0.596,-0.082 -1.068,-0.388 -1.478,-0.81 -0.523,-0.539 -0.773,-1.205 -0.835,-1.934 -0.047,-0.536 -0.241,-0.97 -0.66,-1.302 -0.116,-0.092 -0.239,-0.177 -0.392,-0.29 0.183,-0.084 0.339,-0.166 0.502,-0.228 0.245,-0.094 0.432,-0.264 0.58,-0.467 0.257,-0.349 0.161,-0.776 -0.209,-1.031 -0.237,-0.164 -0.487,-0.299 -0.773,-0.366 -0.234,-0.055 -0.273,-0.126 -0.27,-0.354 0.006,-0.515 0.003,-1.031 0.007,-1.547 0,-0.071 0.024,-0.145 0.013,-0.213 -0.041,-0.263 0.053,-0.429 0.318,-0.496 0.049,-0.013 0.095,-0.053 0.13,-0.093 0.711,-0.82 1.363,-1.683 1.893,-2.634 0.179,-0.321 0.358,-0.642 0.541,-0.959 0.047,-0.084 0.108,-0.159 0.185,-0.269 0.05,0.075 0.091,0.117 0.109,0.169 0.042,0.118 0.082,0.238 0.105,0.361 0.071,0.376 0.282,0.676 0.504,0.972 0.241,0.322 0.551,0.507 0.962,0.499 0.027,-0.001 0.054,0.003 0.081,0.009 0.016,0.005 0.031,0.016 0.057,0.031 -0.031,0.161 -0.069,0.325 -0.09,0.491 -0.037,0.298 0.013,0.584 0.085,0.877 0.098,0.4 0.287,0.755 0.462,1.118 0.262,0.543 0.422,1.116 0.416,1.714 -0.005,0.502 -0.086,1.003 -0.38,1.44 -0.065,0.095 -0.12,0.203 -0.153,0.313 -0.039,0.138 0.034,0.232 0.172,0.238 0.394,0.018 0.74,-0.093 1.029,-0.375 0.193,-0.188 0.391,-0.366 0.481,-0.635 0.018,-0.053 0.101,-0.11 0.16,-0.116 0.284,-0.029 0.502,-0.185 0.634,-0.409 0.17,-0.287 0.263,-0.611 0.164,-0.956 -0.044,-0.156 -0.08,-0.313 -0.116,-0.47 -0.008,-0.041 -0.001,-0.086 -0.001,-0.163 0.101,0.018 0.186,0.025 0.268,0.046 0.494,0.126 0.969,0.018 1.429,-0.141 0.199,-0.069 0.366,-0.23 0.419,-0.458 0.028,-0.118 0.085,-0.191 0.201,-0.226 0.41,-0.126 0.721,-0.398 0.991,-0.714 0.2,-0.233 0.333,-0.51 0.376,-0.821 0.027,-0.187 0.053,-0.374 0.063,-0.563 0.003,-0.059 -0.03,-0.149 -0.076,-0.177 -0.045,-0.027 -0.137,-0.01 -0.192,0.018 -0.086,0.045 -0.165,0.11 -0.237,0.177 -0.544,0.496 -1.191,0.648 -1.9,0.536 -0.436,-0.068 -0.863,-0.19 -1.21,-0.487 -0.122,-0.104 -0.234,-0.224 -0.337,-0.348 -0.451,-0.54 -1.006,-0.793 -1.714,-0.635 -0.017,0.004 -0.036,-0.003 -0.068,-0.006 -0.022,-0.181 -0.034,-0.367 -0.069,-0.549 -0.095,-0.501 -0.582,-0.807 -1.069,-0.672 -0.188,0.053 -0.371,0.126 -0.571,0.195 -0.163,-0.183 -0.259,-0.401 -0.336,-0.646 -0.197,-0.627 -0.02,-1.204 0.166,-1.789 0.262,-0.821 0.455,-1.658 0.614,-2.505 0.107,-0.571 0.241,-1.139 0.356,-1.709 0.108,-0.536 0.198,-1.076 0.315,-1.611 0.05,-0.228 0.066,-0.474 0.21,-0.706 0.166,0.425 0.309,0.826 0.482,1.216 0.097,0.22 0.23,0.427 0.368,0.626 0.125,0.18 0.303,0.303 0.525,0.351 0.253,0.055 0.506,0.11 0.759,0.164 0.005,0.036 0.017,0.064 0.01,0.087 -0.197,0.732 0.056,1.321 0.58,1.821 0.349,0.332 0.646,0.711 0.817,1.153 0.224,0.579 0.362,1.18 0.268,1.817 -0.063,0.433 -0.219,0.829 -0.377,1.23 -0.094,0.24 -0.026,0.327 0.233,0.309 0.427,-0.029 0.802,-0.202 1.135,-0.453 0.397,-0.298 0.741,-0.656 0.971,-1.102 C 0.138,13.343 0.239,13.029 0.25,12.69 0.257,12.486 0.292,12.283 0.313,12.098 0.351,12.073 0.367,12.055 0.381,12.055 0.784,12.04 1.03,11.766 1.26,11.492 1.363,11.37 1.398,11.187 1.457,11.029 1.474,10.981 1.467,10.923 1.469,10.869 1.477,10.621 1.567,10.469 1.815,10.337 2.392,10.03 2.734,9.511 2.855,8.869 2.895,8.652 2.874,8.419 2.853,8.196 2.834,7.989 2.681,7.943 2.509,8.072 2.309,8.223 2.117,8.388 1.902,8.515 1.275,8.885 0.6,8.923 -0.102,8.79 -0.493,8.715 -0.837,8.548 -1.15,8.318 -1.578,8.003 -2.044,7.873 -2.57,7.944 -2.614,7.95 -2.659,7.941 -2.703,7.934 -2.718,7.932 -2.732,7.915 -2.775,7.882 -2.692,7.327 -2.817,6.808 -3.371,6.533 -3.887,6.277 -4.4,6.343 -4.818,6.757 -4.857,6.744 -4.884,6.744 -4.889,6.733 -5.026,6.434 -5.197,6.149 -5.269,5.823 -5.326,5.561 -5.401,5.303 -5.447,5.04 -5.521,4.614 -5.394,4.204 -5.325,3.791 c 0.096,-0.575 0.196,-1.148 0.3,-1.722 0.085,-0.467 0.18,-0.933 0.267,-1.401 0.128,-0.686 0.255,-1.373 0.379,-2.061 0.11,-0.607 0.213,-1.216 0.324,-1.824 0.026,-0.135 0.074,-0.264 0.112,-0.396 0.018,10e-4 0.037,0.003 0.056,0.004 0.042,0.141 0.085,0.282 0.126,0.424 0.219,0.768 0.713,1.301 1.438,1.602 0.195,0.08 0.441,0.036 0.663,0.046 0.095,0.004 0.191,0 0.32,0 -0.044,0.086 -0.065,0.144 -0.099,0.192 -0.328,0.469 -0.457,0.968 -0.259,1.527 0.075,0.21 0.101,0.442 0.203,0.636 0.144,0.278 0.322,0.542 0.516,0.789 0.393,0.503 0.632,1.084 0.86,1.668 0.152,0.389 0.224,0.8 0.136,1.215 -0.092,0.436 -0.216,0.867 -0.33,1.3 -0.059,0.22 -0.009,0.312 0.217,0.302 C 0.108,6.083 0.318,6.052 0.511,5.99 1.446,5.694 1.962,5.016 2.21,4.096 2.306,3.74 2.275,3.391 2.235,3.032 2.194,2.666 2.079,2.334 1.91,2.014 1.895,1.985 1.895,1.948 1.884,1.895 1.969,1.889 2.037,1.887 2.105,1.881 2.4,1.852 2.698,1.841 2.988,1.787 3.442,1.7 3.739,1.299 3.726,0.836 3.724,0.774 3.726,0.712 3.726,0.642 3.772,0.618 3.818,0.588 3.867,0.57 4.125,0.476 4.323,0.308 4.526,0.121 4.807,-0.135 4.958,-0.44 5.075,-0.784 5.186,-1.106 5.151,-1.425 5.069,-1.738 4.998,-2.011 4.812,-2.056 4.621,-1.85 4.406,-1.619 4.194,-1.39 3.906,-1.248 3.291,-0.944 2.668,-0.809 1.984,-1.042 1.604,-1.172 1.312,-1.414 1.001,-1.637 0.462,-2.022 -0.113,-2.099 -0.735,-1.884 c -0.033,0.011 -0.068,0.014 -0.148,0.03 0.043,-0.103 0.066,-0.184 0.107,-0.255 0.281,-0.495 0.042,-1.115 -0.34,-1.397 -0.446,-0.329 -0.988,-0.211 -1.259,0.272 -0.021,0.04 -0.043,0.079 -0.065,0.12 -0.115,0.048 -0.183,-0.031 -0.257,-0.097 -0.323,-0.287 -0.54,-0.626 -0.643,-1.062 -0.1,-0.42 -0.168,-0.841 -0.225,-1.267 -0.048,-0.354 0.016,-0.697 0.07,-1.042 0.095,-0.611 0.207,-1.219 0.302,-1.83 0.13,-0.832 0.254,-1.666 0.374,-2.5 0.073,-0.506 0.131,-1.014 0.201,-1.521 0.115,-0.827 0.238,-1.653 0.35,-2.481 0.03,-0.221 0.048,-0.447 0.044,-0.671 -0.004,-0.266 -0.246,-0.54 -0.512,-0.581 -0.255,-0.039 -0.515,-0.046 -0.773,-0.072 -0.268,-0.028 -0.536,-0.06 -0.803,-0.092 -0.678,-0.08 -1.355,-0.168 -2.033,-0.241 -0.204,-0.022 -0.414,0.001 -0.62,-0.009 -0.708,-0.033 -1.417,-0.079 -2.126,-0.109 -0.646,-0.028 -1.292,-0.059 -1.938,-0.06 -0.618,-0.002 -1.238,0.035 -1.857,0.05 -0.233,0.006 -0.467,-0.007 -0.699,0.003 -0.628,0.027 -1.256,0.054 -1.882,0.095 -0.787,0.052 -1.574,0.113 -2.359,0.179 -0.607,0.049 -1.214,0.101 -1.818,0.173 -0.668,0.08 -1.334,0.184 -2,0.278 -0.071,0.01 -0.143,0.023 -0.211,0.045 -0.201,0.063 -0.316,0.204 -0.335,0.412 -0.01,0.106 0,0.216 0.014,0.322 0.096,0.712 0.19,1.422 0.294,2.132 0.118,0.81 0.248,1.617 0.369,2.425 0.065,0.426 0.117,0.854 0.185,1.279 0.089,0.549 0.189,1.097 0.278,1.647 0.035,0.22 0.065,0.442 0.075,0.665 0.025,0.576 -0.015,1.148 -0.114,1.716 -0.054,0.309 -0.096,0.621 -0.158,0.929 -0.048,0.248 -0.144,0.479 -0.335,0.691 -0.105,-0.047 -0.206,-0.1 -0.313,-0.141 -0.444,-0.17 -0.884,-0.192 -1.279,0.117 -0.357,0.279 -0.575,0.633 -0.513,1.115 0.018,0.131 0.003,0.266 0.003,0.415 -0.033,0.006 -0.077,0.027 -0.115,0.019 -0.431,-0.097 -0.821,0.024 -1.189,0.232 -0.528,0.3 -1.083,0.514 -1.692,0.575 -0.41,0.042 -0.803,-0.013 -1.195,-0.134 -0.596,-0.185 -1.104,-0.51 -1.563,-0.922 -0.116,-0.104 -0.238,-0.193 -0.419,-0.154 -0.174,0.68 -0.063,1.321 0.315,1.897 0.374,0.569 0.907,0.938 1.598,1.037"
             style="fill:#575756;fill-opacity:1;fill-rule:evenodd;stroke:none"
             id="path250"
             inkscape:connector-curvature="0" /></g><g
           id="g252"
           transform="translate(57.5805,52.7044)"><path
             d="M 0,0 C -0.008,0.083 -0.017,0.153 -0.02,0.222 -0.033,0.476 -0.106,0.58 -0.337,0.667 -0.52,0.735 -0.738,0.674 -0.874,0.517 -1.125,0.228 -1.174,-0.215 -0.99,-0.57 c 0.197,-0.38 0.56,-0.552 0.957,-0.528 0.372,0.023 0.701,0.19 0.964,0.44 0.141,0.134 0.227,0.342 0.296,0.532 C 1.424,0.423 1.44,0.983 1.233,1.535 1.126,1.819 0.987,2.091 0.857,2.367 0.674,2.757 0.495,3.15 0.297,3.533 0.093,3.932 -0.159,4.31 -0.339,4.718 -0.504,5.091 -0.714,5.432 -0.923,5.776 -1.272,6.35 -1.622,6.924 -1.991,7.485 c -0.25,0.382 -0.529,0.746 -0.803,1.112 -0.323,0.43 -0.654,0.854 -0.988,1.275 -0.094,0.118 -0.215,0.214 -0.317,0.326 -0.285,0.311 -0.556,0.635 -0.851,0.935 -0.269,0.275 -0.554,0.536 -0.846,0.787 -0.933,0.801 -1.903,1.557 -2.903,2.274 -0.297,0.214 -0.617,0.398 -0.938,0.577 -0.548,0.308 -1.091,0.627 -1.659,0.893 -0.928,0.435 -1.881,0.815 -2.875,1.077 -0.39,0.103 -0.788,0.178 -1.185,0.245 -0.459,0.079 -0.922,0.152 -1.386,0.196 -0.453,0.044 -0.91,0.051 -1.364,0.07 -0.223,0.009 -0.446,0.018 -0.667,0.008 -0.287,-0.013 -0.573,-0.037 -0.857,-0.071 -0.473,-0.055 -0.948,-0.104 -1.415,-0.187 -1.044,-0.186 -2.052,-0.496 -3.039,-0.89 -0.703,-0.28 -1.382,-0.604 -2.046,-0.96 -0.325,-0.174 -0.633,-0.378 -0.94,-0.582 -0.568,-0.377 -1.138,-0.751 -1.69,-1.15 -0.363,-0.263 -0.697,-0.565 -1.039,-0.855 -0.286,-0.244 -0.572,-0.49 -0.847,-0.747 -0.398,-0.372 -0.791,-0.75 -1.177,-1.136 -0.22,-0.221 -0.432,-0.453 -0.627,-0.697 -0.43,-0.538 -0.86,-1.076 -1.265,-1.634 -0.407,-0.558 -0.789,-1.134 -1.169,-1.711 -0.246,-0.374 -0.469,-0.765 -0.703,-1.148 -0.121,-0.199 -0.256,-0.39 -0.365,-0.597 -0.375,-0.714 -0.749,-1.43 -1.108,-2.154 -0.098,-0.198 -0.127,-0.43 -0.213,-0.636 -0.248,-0.587 -0.319,-1.216 -0.394,-1.834 -0.099,-0.812 0.713,-1.723 1.715,-1.378 0.672,0.232 0.89,1.183 0.372,1.601 -0.048,0.039 -0.099,0.078 -0.155,0.105 -0.148,0.07 -0.297,0.069 -0.434,-0.031 -0.133,-0.098 -0.188,-0.216 -0.149,-0.396 0.06,-0.276 -0.066,-0.396 -0.333,-0.362 -0.122,0.015 -0.203,0.075 -0.224,0.196 -0.127,0.689 0.166,1.419 1.096,1.418 0.564,-10e-4 0.98,-0.357 1.022,-0.953 0.029,-0.405 0.066,-0.801 -0.147,-1.181 -0.119,-0.213 -0.286,-0.367 -0.468,-0.508 -0.14,-0.11 -0.304,-0.192 -0.463,-0.273 -0.111,-0.057 -0.228,-0.104 -0.362,-0.058 -0.057,0.02 -0.133,0.025 -0.187,0.004 -0.268,-0.104 -0.486,0.054 -0.71,0.139 -0.151,0.058 -0.278,0.184 -0.411,0.286 -0.056,0.043 -0.099,0.105 -0.147,0.157 -0.271,0.291 -0.382,0.639 -0.382,1.031 0,0.458 0.069,0.908 0.156,1.354 0.162,0.836 0.491,1.61 0.881,2.36 0.289,0.555 0.548,1.124 0.901,1.647 0.451,0.668 0.833,1.383 1.287,2.05 0.439,0.644 0.836,1.318 1.352,1.909 0.248,0.283 0.465,0.593 0.717,0.873 0.4,0.446 0.809,0.884 1.232,1.308 0.27,0.272 0.574,0.509 0.861,0.766 0.278,0.25 0.548,0.511 0.83,0.757 0.214,0.187 0.436,0.366 0.663,0.536 0.429,0.323 0.857,0.65 1.303,0.95 0.394,0.265 0.81,0.498 1.219,0.741 0.743,0.44 1.521,0.811 2.319,1.135 0.622,0.253 1.261,0.479 1.911,0.645 0.682,0.174 1.388,0.256 2.082,0.388 0.622,0.119 1.253,0.108 1.879,0.149 0.32,0.022 0.645,-0.028 0.967,-0.045 0.107,-0.005 0.215,-0.009 0.323,-0.011 0.855,-0.024 1.692,-0.185 2.53,-0.339 0.424,-0.077 0.833,-0.203 1.245,-0.336 0.634,-0.202 1.254,-0.434 1.862,-0.7 0.402,-0.176 0.795,-0.374 1.185,-0.578 0.405,-0.211 0.808,-0.426 1.195,-0.665 0.38,-0.234 0.749,-0.49 1.107,-0.757 0.589,-0.439 1.182,-0.875 1.742,-1.349 0.644,-0.545 1.272,-1.111 1.872,-1.705 C -3.937,10.679 -3.5,10.165 -3.074,9.646 -2.722,9.217 -2.422,8.744 -2.08,8.306 -1.394,7.425 -0.858,6.45 -0.283,5.499 -0.094,5.187 0.067,4.856 0.231,4.528 0.598,3.8 0.967,3.072 1.318,2.336 1.48,1.998 1.652,1.661 1.712,1.281 1.732,1.156 1.768,1.042 1.726,0.913 1.699,0.831 1.702,0.732 1.717,0.645 1.809,0.124 1.636,-0.355 1.364,-0.759 1.115,-1.131 0.711,-1.375 0.238,-1.429 c -0.274,-0.031 -0.54,-0.078 -0.822,0.024 -0.334,0.121 -0.575,0.346 -0.772,0.608 -0.322,0.428 -0.433,0.91 -0.277,1.448 0.138,0.472 0.63,0.837 1.122,0.816 C 0.05,1.444 0.498,0.945 0.522,0.45 0.541,0.068 0.419,-0.054 0,0"
             style="fill:#575756;fill-opacity:1;fill-rule:evenodd;stroke:none"
             id="path254"
             inkscape:connector-curvature="0" /></g><g
           id="g256"
           transform="translate(36.4619,11.3802)"><path
             d="m 0,0 c -0.011,0.073 -0.026,0.142 -0.029,0.211 -0.007,0.167 0.046,0.25 0.176,0.293 0.167,0.055 0.28,0.02 0.382,-0.105 0.211,-0.257 0.156,-0.526 0.018,-0.782 -0.12,-0.224 -0.308,-0.355 -0.587,-0.346 -0.448,0.015 -0.663,0.194 -0.754,0.638 -0.132,0.642 0.154,1.218 0.651,1.54 C 0.42,1.813 0.994,1.756 1.531,1.402 1.844,1.196 2.016,0.877 2.096,0.513 2.228,-0.087 2.136,-0.643 1.763,-1.144 1.585,-1.381 1.359,-1.554 1.09,-1.666 c -0.62,-0.255 -1.262,-0.425 -1.935,-0.43 -0.376,-0.002 -0.757,0.004 -1.126,0.061 -0.37,0.059 -0.74,0.156 -1.089,0.29 -0.586,0.224 -1.167,0.47 -1.729,0.749 -0.553,0.275 -1.093,0.584 -1.616,0.913 -0.57,0.357 -1.12,0.745 -1.666,1.14 -0.318,0.231 -0.613,0.497 -0.911,0.755 -0.346,0.299 -0.686,0.606 -1.024,0.914 -0.305,0.277 -0.619,0.546 -0.9,0.846 -0.404,0.43 -0.782,0.884 -1.168,1.33 -0.193,0.225 -0.388,0.449 -0.566,0.685 -0.34,0.452 -0.681,0.904 -0.998,1.371 -0.392,0.579 -0.757,1.177 -1.14,1.762 -0.415,0.632 -0.768,1.297 -1.092,1.978 -0.05,0.106 -0.109,0.207 -0.157,0.314 -0.358,0.801 -0.74,1.594 -1.064,2.409 -0.276,0.691 -0.509,1.402 -0.719,2.116 -0.297,1.005 -0.587,2.016 -0.821,3.037 -0.219,0.951 -0.417,1.909 -0.528,2.882 -0.047,0.418 -0.138,0.832 -0.188,1.25 -0.04,0.328 -0.046,0.661 -0.071,0.991 -0.031,0.394 -0.072,0.787 -0.101,1.18 -0.025,0.331 -0.047,0.662 -0.058,0.993 -0.021,0.646 -0.05,1.291 -0.047,1.937 0.005,0.887 0.012,1.776 0.063,2.661 0.051,0.86 0.156,1.716 0.244,2.573 0.041,0.41 0.067,0.825 0.151,1.227 0.135,0.649 0.293,1.294 0.475,1.93 0.138,0.482 0.314,0.955 0.501,1.42 0.074,0.185 0.204,0.361 0.348,0.503 0.241,0.238 0.493,0.476 0.81,0.618 0.257,0.115 0.525,0.168 0.81,0.11 0.427,-0.086 0.816,-0.241 1.053,-0.629 0.106,-0.174 0.19,-0.37 0.235,-0.567 0.086,-0.368 0.11,-0.741 -0.043,-1.107 -0.09,-0.217 -0.201,-0.41 -0.361,-0.588 -0.365,-0.407 -0.977,-0.429 -1.388,-0.184 -0.293,0.175 -0.565,0.429 -0.496,0.852 0.021,0.131 -0.01,0.269 0.008,0.4 0.027,0.202 0.115,0.377 0.294,0.494 0.023,0.015 0.042,0.036 0.066,0.048 0.135,0.073 0.354,0.039 0.422,-0.063 0.065,-0.097 0.033,-0.274 -0.091,-0.378 -0.127,-0.106 -0.13,-0.224 -0.075,-0.361 0.138,-0.344 0.493,-0.451 0.794,-0.237 0.345,0.245 0.618,0.724 0.412,1.256 -0.065,0.167 -0.195,0.333 -0.339,0.44 -0.471,0.347 -0.953,0.338 -1.411,-0.024 -0.377,-0.296 -0.671,-0.648 -0.845,-1.12 -0.223,-0.608 -0.398,-1.229 -0.571,-1.851 -0.216,-0.78 -0.328,-1.58 -0.406,-2.386 -0.024,-0.24 -0.072,-0.478 -0.094,-0.719 -0.015,-0.159 0.005,-0.322 -0.007,-0.482 -0.017,-0.216 -0.051,-0.428 -0.072,-0.643 -0.018,-0.196 -0.032,-0.393 -0.043,-0.59 -0.036,-0.654 -0.076,-1.307 -0.101,-1.96 -0.011,-0.314 0.006,-0.629 0.013,-0.944 0.009,-0.385 0.013,-0.77 0.035,-1.155 0.04,-0.708 0.087,-1.415 0.142,-2.123 0.042,-0.553 0.086,-1.107 0.153,-1.657 0.078,-0.633 0.167,-1.265 0.279,-1.892 0.144,-0.795 0.302,-1.587 0.48,-2.374 0.129,-0.567 0.3,-1.126 0.458,-1.687 0.127,-0.449 0.249,-0.901 0.396,-1.344 0.193,-0.578 0.39,-1.156 0.618,-1.72 0.273,-0.673 0.572,-1.336 0.879,-1.994 0.226,-0.487 0.494,-0.956 0.726,-1.44 0.365,-0.762 0.825,-1.468 1.28,-2.174 0.442,-0.686 0.915,-1.353 1.413,-1.998 0.442,-0.574 0.935,-1.109 1.405,-1.661 0.172,-0.204 0.33,-0.423 0.518,-0.612 0.239,-0.241 0.502,-0.459 0.755,-0.685 0.294,-0.263 0.585,-0.531 0.885,-0.786 0.637,-0.542 1.293,-1.056 2.002,-1.5 0.517,-0.323 1.02,-0.668 1.542,-0.983 0.299,-0.18 0.617,-0.332 0.936,-0.472 0.608,-0.266 1.214,-0.545 1.841,-0.759 0.376,-0.128 0.789,-0.163 1.188,-0.204 0.522,-0.055 1.041,0.005 1.544,0.153 0.275,0.082 0.541,0.194 0.809,0.299 0.307,0.121 0.416,0.412 0.539,0.678 C 1.815,-0.023 1.418,0.694 1.088,0.931 0.805,1.134 0.497,1.134 0.199,0.965 -0.099,0.795 -0.237,0.52 -0.241,0.18 -0.243,0.047 -0.208,0.028 0,0"
             style="fill:#575756;fill-opacity:1;fill-rule:evenodd;stroke:none"
             id="path258"
             inkscape:connector-curvature="0" /></g><g
           id="g260"
           transform="translate(41.7964,11.364)"><path
             d="M 0,0 C 0.124,-0.041 0.202,-0.021 0.224,0.113 0.261,0.344 0.22,0.554 0.075,0.744 -0.216,1.125 -0.69,1.238 -1.036,0.96 -1.421,0.651 -1.804,-0.023 -1.512,-0.619 c 0.193,-0.395 0.457,-0.647 0.87,-0.775 0.422,-0.13 0.845,-0.25 1.286,-0.292 0.504,-0.047 1.003,-0.012 1.496,0.11 0.365,0.09 0.734,0.165 1.096,0.263 0.208,0.055 0.415,0.124 0.609,0.214 0.528,0.248 1.059,0.493 1.571,0.773 0.573,0.314 1.149,0.634 1.684,1.01 0.704,0.493 1.375,1.034 2.046,1.571 0.461,0.369 0.911,0.753 1.344,1.153 0.316,0.291 0.609,0.611 0.891,0.936 0.54,0.623 1.076,1.249 1.592,1.892 0.326,0.406 0.617,0.84 0.914,1.267 0.235,0.339 0.472,0.676 0.677,1.032 0.376,0.653 0.732,1.315 1.091,1.977 0.198,0.363 0.396,0.725 0.573,1.098 0.229,0.487 0.454,0.976 0.651,1.476 0.33,0.835 0.638,1.679 0.954,2.519 0.028,0.075 0.054,0.152 0.076,0.23 0.186,0.664 0.383,1.326 0.555,1.994 0.145,0.563 0.267,1.132 0.391,1.7 0.117,0.533 0.258,1.064 0.328,1.603 0.111,0.863 0.301,1.714 0.338,2.588 0.025,0.538 0.116,1.072 0.148,1.609 0.037,0.608 0.039,1.218 0.064,1.827 0.014,0.34 0.056,0.678 0.069,1.019 0.008,0.195 -0.019,0.391 -0.027,0.587 -0.014,0.339 -0.053,0.679 -0.032,1.015 0.028,0.442 -0.038,0.875 -0.068,1.311 -0.026,0.384 -0.061,0.768 -0.109,1.15 -0.103,0.837 -0.198,1.676 -0.331,2.51 -0.101,0.627 -0.268,1.244 -0.379,1.871 -0.069,0.386 -0.167,0.756 -0.403,1.073 -0.333,0.445 -0.753,0.764 -1.324,0.837 -0.241,0.031 -0.465,-0.048 -0.673,-0.153 -0.278,-0.14 -0.489,-0.36 -0.652,-0.626 -0.092,-0.149 -0.085,-0.319 -0.038,-0.471 0.109,-0.362 0.292,-0.672 0.69,-0.795 0.347,-0.108 0.748,0.206 0.716,0.572 -0.004,0.044 -0.008,0.089 -0.011,0.128 -0.015,0.02 -0.024,0.036 -0.038,0.046 -0.168,0.121 -0.212,0.235 -0.133,0.347 0.085,0.12 0.355,0.119 0.487,-0.014 0.062,-0.063 0.111,-0.143 0.149,-0.223 0.307,-0.641 0.114,-1.215 -0.485,-1.533 -0.397,-0.21 -0.995,-0.04 -1.283,0.227 -0.479,0.445 -0.569,0.998 -0.449,1.606 0.129,0.65 0.538,1.031 1.173,1.188 0.113,0.027 0.223,0.067 0.337,0.087 0.459,0.077 0.847,-0.113 1.21,-0.352 0.365,-0.243 0.636,-0.58 0.862,-0.951 0.046,-0.074 0.071,-0.166 0.09,-0.253 0.141,-0.667 0.296,-1.332 0.412,-2.002 0.153,-0.894 0.291,-1.791 0.406,-2.69 0.087,-0.676 0.162,-1.357 0.184,-2.038 0.037,-1.157 0.036,-2.317 0.036,-3.475 0,-0.557 -0.02,-1.115 -0.055,-1.672 -0.032,-0.509 -0.097,-1.016 -0.146,-1.524 -0.034,-0.348 -0.056,-0.697 -0.1,-1.044 -0.054,-0.445 -0.126,-0.889 -0.191,-1.332 -0.041,-0.285 -0.067,-0.572 -0.124,-0.853 -0.12,-0.604 -0.25,-1.207 -0.384,-1.808 -0.13,-0.576 -0.26,-1.152 -0.406,-1.725 C 18.578,16.667 18.447,16.134 18.268,15.618 17.971,14.762 17.658,13.91 17.315,13.071 17.013,12.333 16.683,11.605 16.326,10.892 15.985,10.211 15.594,9.556 15.225,8.89 15.052,8.578 14.883,8.264 14.701,7.957 14.578,7.749 14.44,7.549 14.301,7.351 14.043,6.984 13.788,6.614 13.516,6.258 13.282,5.953 13.025,5.665 12.778,5.368 12.479,5.009 12.2,4.633 11.879,4.295 11.449,3.843 11.069,3.341 10.56,2.961 10.288,2.758 10.066,2.49 9.803,2.274 9.229,1.804 8.647,1.342 8.059,0.889 7.713,0.622 7.361,0.357 6.991,0.125 6.328,-0.288 5.655,-0.682 4.939,-0.999 4.545,-1.173 4.163,-1.376 3.77,-1.551 3.598,-1.627 3.414,-1.683 3.23,-1.721 2.668,-1.838 2.105,-1.955 1.538,-2.048 0.981,-2.14 0.427,-2.06 -0.119,-1.935 c -0.219,0.05 -0.433,0.116 -0.651,0.173 -0.579,0.153 -0.952,0.552 -1.231,1.052 -0.063,0.112 -0.068,0.258 -0.091,0.391 -0.095,0.55 0.016,1.075 0.345,1.51 0.342,0.453 0.853,0.575 1.407,0.48 C -0.101,1.63 0.121,1.55 0.317,1.387 0.612,1.141 0.751,0.819 0.825,0.463 0.857,0.307 0.855,0.141 0.849,-0.02 0.835,-0.408 0.614,-0.582 0.249,-0.678 c -0.305,-0.08 -0.558,0.023 -0.746,0.29 -0.139,0.198 -0.125,0.657 0.046,0.832 0.105,0.108 0.247,0.131 0.368,0.059 C 0.048,0.425 0.084,0.324 0.042,0.161 0.028,0.11 0.015,0.059 0,0"
             style="fill:#575756;fill-opacity:1;fill-rule:evenodd;stroke:none"
             id="path262"
             inkscape:connector-curvature="0" /></g><g
           id="g264"
           transform="translate(38.2573,35.8347)"><path
             d="M 0,0 C 0.605,-0.05 1.19,-0.017 1.791,-0.024 1.785,0.054 1.794,0.103 1.777,0.139 1.658,0.389 1.537,0.639 1.408,0.884 1.385,0.928 1.333,0.966 1.285,0.986 0.992,1.108 0.689,1.193 0.369,1.162 0.171,1.143 0.006,1.01 0.002,0.867 -0.006,0.589 0,0.311 0,0 m 0.027,1.938 c 0.384,0 0.715,-0.009 1.045,0.006 0.089,0.004 0.192,0.063 0.257,0.128 0.182,0.184 0.33,0.395 0.423,0.644 C 1.98,3.329 1.796,3.878 1.49,4.404 1.415,4.533 1.283,4.628 1.114,4.631 0.989,4.633 0.861,4.646 0.737,4.635 0.276,4.595 0.025,4.326 0.015,3.861 0.006,3.44 0,3.02 0,2.598 0,2.386 0.018,2.174 0.027,1.938 M 1.051,-0.617 V -0.621 C 0.8,-0.621 0.549,-0.618 0.298,-0.622 0.03,-0.625 0,-0.654 -0.001,-0.911 -0.003,-1.388 -0.027,-1.866 0.006,-2.339 0.042,-2.846 0.111,-3.352 0.207,-3.85 c 0.055,-0.283 0.254,-0.497 0.555,-0.557 0.241,-0.047 0.539,-0.004 0.749,0.345 0.267,0.441 0.436,0.92 0.526,1.423 0.107,0.601 0.127,1.209 0.041,1.817 -0.022,0.16 -0.055,0.2 -0.222,0.203 -0.268,0.006 -0.537,0.002 -0.805,0.002 M -2.88,5.428 c 0.069,0.102 0.135,0.176 0.174,0.261 0.146,0.317 0.354,0.586 0.628,0.797 0.241,0.186 0.508,0.309 0.824,0.173 0.292,-0.125 0.34,-0.397 0.084,-0.581 -0.377,-0.27 -0.61,-0.65 -0.843,-1.033 -0.038,-0.06 -0.064,-0.13 -0.079,-0.2 -0.107,-0.499 -0.241,-0.99 -0.231,-1.51 0.016,-0.808 -0.003,-1.615 0,-2.423 10e-4,-0.196 0.023,-0.393 0.051,-0.587 0.028,-0.208 0.178,-0.321 0.37,-0.33 0.357,-0.018 0.715,-0.005 1.095,-0.005 0.018,0.088 0.051,0.172 0.052,0.257 0.004,0.837 0.004,1.673 0.005,2.51 0,0.493 0.012,0.987 -0.008,1.48 -0.007,0.182 -0.092,0.361 -0.138,0.542 -0.021,0.085 -0.053,0.173 -0.05,0.259 0.006,0.16 0.068,0.224 0.227,0.246 0.151,0.02 0.304,0.033 0.456,0.035 C 0.236,5.322 0.734,5.324 1.233,5.318 1.533,5.314 1.796,5.177 2.017,4.997 2.223,4.829 2.39,4.61 2.564,4.407 2.622,4.341 2.667,4.256 2.694,4.172 2.888,3.554 2.914,2.945 2.627,2.337 2.456,1.972 2.172,1.728 1.857,1.493 1.817,1.365 1.901,1.281 1.991,1.202 2.324,0.906 2.604,0.572 2.746,0.14 2.781,0.034 2.851,-0.019 2.966,-0.019 3.236,-0.02 3.506,-0.032 3.776,-0.025 3.963,-0.021 3.993,0.016 4.003,0.2 4.011,0.334 4.007,0.47 4.008,0.604 4.008,1.305 4.007,2.005 4.009,2.706 4.011,3.109 4.013,3.514 4.023,3.917 4.032,4.254 3.955,4.57 3.827,4.88 3.714,5.156 3.594,5.423 3.381,5.638 3.282,5.739 3.197,5.85 3.017,5.802 2.845,5.756 2.671,5.791 2.562,5.951 2.438,6.131 2.544,6.302 2.622,6.459 2.706,6.631 2.884,6.684 3.056,6.654 3.265,6.617 3.466,6.548 3.659,6.438 4.041,6.218 4.34,5.917 4.611,5.58 4.633,5.552 4.666,5.533 4.713,5.493 4.776,5.531 4.842,5.571 4.908,5.611 5.099,5.729 5.311,5.763 5.528,5.748 5.738,5.732 5.803,5.58 5.678,5.406 5.634,5.344 5.566,5.288 5.498,5.253 5.194,5.101 5.094,4.846 5.095,4.523 5.099,3.659 5.093,2.795 5.093,1.931 5.093,0.936 5.098,-0.06 5.096,-1.056 5.094,-1.982 5.088,-2.909 5.078,-3.835 5.074,-4.239 5.202,-4.604 5.349,-4.974 5.538,-5.456 5.893,-5.74 6.344,-5.935 6.456,-5.983 6.584,-5.995 6.705,-6.023 6.835,-6.055 6.97,-6.074 7.092,-6.123 7.229,-6.178 7.306,-6.338 7.29,-6.475 7.272,-6.629 7.162,-6.744 6.995,-6.778 6.463,-6.887 5.942,-6.872 5.456,-6.603 5.061,-6.383 4.792,-6.038 4.532,-5.647 4.441,-5.725 4.361,-5.807 4.268,-5.87 3.979,-6.063 3.685,-6.252 3.39,-6.437 3.27,-6.512 3.147,-6.485 3.041,-6.4 c -0.151,0.121 -0.162,0.325 0.003,0.468 0.221,0.193 0.376,0.431 0.551,0.658 0.282,0.368 0.393,0.786 0.405,1.228 0.019,0.746 0.007,1.492 0.004,2.237 -10e-4,0.314 -10e-4,0.628 -0.024,0.94 -0.017,0.241 -0.04,0.249 -0.285,0.252 -0.189,0.002 -0.377,0 -0.558,0 C 3.052,-0.706 3.046,-0.789 3.065,-0.896 3.197,-1.651 3.163,-2.392 2.917,-3.127 2.797,-3.491 2.631,-3.832 2.403,-4.119 2.147,-4.444 1.865,-4.756 1.515,-5.006 1.248,-5.197 0.973,-5.313 0.661,-5.373 c -0.459,-0.088 -0.889,0.03 -1.314,0.179 -0.068,0.024 -0.131,0.059 -0.196,0.09 -0.276,0.133 -0.37,0.383 -0.177,0.612 0.234,0.276 0.284,0.572 0.277,0.916 -0.015,0.815 -0.002,1.63 -0.001,2.445 0,0.054 0.001,0.108 -0.001,0.162 -0.011,0.329 -0.068,0.376 -0.385,0.35 -0.176,-0.015 -0.352,-0.011 -0.529,-0.018 -0.098,-0.005 -0.197,-0.005 -0.293,-0.023 -0.223,-0.04 -0.36,-0.207 -0.362,-0.432 -0.003,-0.591 -0.004,-1.183 -0.005,-1.774 -10e-4,-0.366 -0.02,-0.732 0.004,-1.095 0.041,-0.642 0.251,-1.226 0.662,-1.728 0.063,-0.077 0.128,-0.153 0.179,-0.237 0.064,-0.102 0.095,-0.221 0.025,-0.331 -0.076,-0.121 -0.206,-0.138 -0.336,-0.115 -0.078,0.013 -0.158,0.04 -0.228,0.079 -0.195,0.107 -0.385,0.226 -0.578,0.338 -0.054,0.032 -0.111,0.058 -0.153,0.08 -0.224,-0.211 -0.436,-0.414 -0.651,-0.613 -0.285,-0.263 -0.619,-0.427 -1.002,-0.486 -0.071,-0.012 -0.145,-0.022 -0.214,-0.011 -0.123,0.018 -0.257,0.032 -0.287,0.194 -0.027,0.139 0.042,0.288 0.169,0.37 0.21,0.136 0.428,0.26 0.623,0.415 0.511,0.409 0.82,0.935 0.894,1.598 0.045,0.399 0.104,0.795 0.088,1.199 -0.011,0.284 -0.02,0.568 -0.02,0.853 -10e-4,0.251 0.019,0.502 0.019,0.752 0.002,1.808 0.006,3.614 -0.002,5.422 -10e-4,0.22 -0.047,0.447 -0.11,0.659 -0.063,0.218 -0.278,0.319 -0.444,0.455 -0.006,0.005 -0.016,0.008 -0.024,0.011 -0.13,0.059 -0.306,0.109 -0.258,0.289 0.044,0.169 0.184,0.293 0.371,0.314 0.233,0.027 0.468,0.027 0.718,-0.118"
             style="fill:#575756;fill-opacity:1;fill-rule:evenodd;stroke:none"
             id="path266"
             inkscape:connector-curvature="0" /></g><g
           id="g268"
           transform="translate(45.3374,23.972)"><path
             d="m 0,0 c -0.169,-0.104 -0.319,-0.565 -0.292,-0.84 0.33,-0.054 0.33,-0.054 0.55,0.024 C 0.173,-0.546 0.087,-0.276 0,0 M -0.507,-1.467 C -0.562,-1.693 -0.616,-1.9 -0.661,-2.11 c -0.052,-0.247 -0.004,-0.348 0.216,-0.477 0.106,-0.063 0.182,-0.214 0.148,-0.32 -0.039,-0.12 -0.13,-0.197 -0.258,-0.196 -0.124,0.002 -0.248,0.03 -0.372,0.045 -0.159,0.02 -0.32,0.056 -0.479,0.051 -0.151,-0.004 -0.273,0.067 -0.408,0.094 -0.164,0.034 -0.337,0.014 -0.506,0.02 -0.305,0.012 -0.609,0.022 -0.913,0.04 -0.217,0.013 -0.321,0.108 -0.326,0.284 -0.005,0.143 0.05,0.225 0.199,0.274 0.316,0.101 0.411,0.245 0.41,0.578 -10e-4,0.672 -0.005,1.342 -0.011,2.014 -0.001,0.083 -0.022,0.166 -0.042,0.305 -0.081,-0.086 -0.138,-0.121 -0.158,-0.17 -0.229,-0.553 -0.452,-1.107 -0.677,-1.661 -0.125,-0.31 -0.149,-0.374 -0.418,-0.373 -0.164,0.306 -0.338,0.625 -0.505,0.948 -0.161,0.311 -0.283,0.644 -0.562,0.952 -0.026,-0.186 -0.058,-0.314 -0.057,-0.441 0.004,-0.521 0.014,-1.042 0.031,-1.562 0.004,-0.103 0.04,-0.208 0.079,-0.306 0.053,-0.134 0.147,-0.207 0.308,-0.211 0.185,-0.006 0.247,-0.084 0.251,-0.248 0.005,-0.182 -0.058,-0.276 -0.253,-0.271 -0.411,0.009 -0.821,0.035 -1.232,0.015 -0.066,-0.003 -0.135,0.038 -0.195,0.057 -0.061,0.318 -0.063,0.323 0.192,0.454 0.144,0.074 0.209,0.171 0.209,0.339 0,1.033 0.008,2.065 0.018,3.098 0.002,0.211 -0.059,0.385 -0.217,0.528 -0.06,0.054 -0.112,0.117 -0.159,0.182 -0.11,0.154 -0.05,0.302 0.134,0.333 0.017,0.003 0.036,0.004 0.053,0.003 0.349,-0.03 0.697,-0.06 1.045,-0.087 0.112,-0.008 0.169,-0.057 0.216,-0.164 0.248,-0.573 0.508,-1.141 0.768,-1.709 0.027,-0.061 0.078,-0.112 0.144,-0.201 0.134,0.31 0.261,0.584 0.374,0.864 0.133,0.333 0.248,0.673 0.385,1.006 0.025,0.061 0.104,0.121 0.17,0.142 0.101,0.032 0.212,0.041 0.318,0.038 C -2.463,2.153 -2.183,2.152 -1.908,2.122 -1.655,2.093 -1.617,1.966 -1.777,1.759 -1.853,1.662 -1.933,1.565 -2.003,1.463 -2.23,1.135 -2.226,0.752 -2.226,0.38 c 0,-0.437 0.043,-0.874 0.052,-1.311 0.006,-0.286 -0.015,-0.574 -0.025,-0.861 -0.008,-0.21 0.08,-0.383 0.211,-0.539 0.21,-0.251 0.454,-0.191 0.663,0.097 0.09,0.125 0.13,0.294 0.166,0.449 0.188,0.789 0.37,1.58 0.551,2.37 0.083,0.367 0.162,0.733 0.238,1.101 0.019,0.092 0.069,0.151 0.156,0.161 0.148,0.015 0.297,0.017 0.461,0.026 C 0.301,1.733 0.353,1.62 0.39,1.501 0.739,0.39 1.086,-0.723 1.434,-1.835 1.502,-2.057 1.569,-2.28 1.638,-2.501 1.7,-2.699 1.761,-2.89 1.976,-2.992 2.097,-3.05 2.176,-3.441 2.083,-3.534 2.021,-3.598 1.894,-3.616 1.794,-3.619 1.72,-3.621 1.64,-3.576 1.569,-3.538 c -0.346,0.19 -0.713,0.288 -1.111,0.264 -0.12,-0.007 -0.234,0.006 -0.27,0.16 -0.045,0.194 -0.009,0.301 0.145,0.385 0.415,0.23 0.416,0.23 0.288,0.69 -0.038,0.138 -0.079,0.276 -0.129,0.41 -0.021,0.054 -0.067,0.112 -0.117,0.136 -0.132,0.066 -0.698,0.076 -0.882,0.026"
             style="fill:#575756;fill-opacity:1;fill-rule:evenodd;stroke:none"
             id="path270"
             inkscape:connector-curvature="0" /></g><g
           id="g272"
           transform="translate(39.8974,47.3162)"><path
             d="m 0,0 c 0.005,0.324 -0.255,0.585 -0.583,0.585 -0.287,0 -0.564,-0.267 -0.549,-0.555 0.017,-0.333 0.188,-0.598 0.59,-0.593 C -0.209,-0.559 -0.032,-0.311 0,0 m -1.093,-1.266 c -0.286,-0.195 -0.504,-0.35 -0.728,-0.495 -0.203,-0.132 -0.413,-0.252 -0.618,-0.38 -0.099,-0.062 -0.196,-0.108 -0.285,0.006 -0.082,0.103 -0.041,0.2 0.025,0.296 0.191,0.271 0.382,0.543 0.567,0.819 0.09,0.132 0.167,0.271 0.269,0.44 -0.119,0.048 -0.203,0.097 -0.292,0.116 -0.36,0.075 -0.722,0.139 -1.082,0.212 -0.158,0.033 -0.324,0.06 -0.391,0.248 0.058,0.148 0.165,0.203 0.325,0.23 0.431,0.073 0.859,0.172 1.286,0.263 0.041,0.008 0.079,0.031 0.146,0.06 -0.092,0.16 -0.169,0.308 -0.26,0.448 -0.182,0.277 -0.371,0.549 -0.557,0.823 -0.07,0.101 -0.116,0.211 -0.036,0.322 0.054,0.075 0.232,0.071 0.35,-0.007 0.315,-0.206 0.626,-0.419 0.939,-0.629 0.089,-0.06 0.178,-0.119 0.301,-0.202 0.042,0.125 0.09,0.228 0.11,0.336 0.072,0.368 0.134,0.739 0.202,1.109 0.012,0.06 0.024,0.136 0.065,0.173 0.06,0.055 0.143,0.102 0.223,0.115 0.105,0.018 0.13,-0.081 0.145,-0.161 0.077,-0.404 0.151,-0.81 0.22,-1.215 0.02,-0.116 0.02,-0.235 0.178,-0.321 0.124,0.083 0.266,0.173 0.405,0.267 0.257,0.178 0.513,0.36 0.771,0.538 C 1.213,2.165 1.25,2.174 1.282,2.188 1.378,2.229 1.479,2.252 1.559,2.169 1.649,2.074 1.614,1.967 1.553,1.872 1.396,1.631 1.233,1.395 1.076,1.154 0.951,0.964 0.829,0.771 0.678,0.538 0.925,0.485 1.132,0.441 1.339,0.396 1.662,0.327 1.984,0.255 2.309,0.188 2.397,0.17 2.467,0.141 2.462,0.038 2.458,-0.057 2.429,-0.135 2.317,-0.161 2.205,-0.187 2.097,-0.236 1.984,-0.258 1.677,-0.319 1.366,-0.364 1.06,-0.43 0.946,-0.456 0.799,-0.46 0.761,-0.653 0.978,-0.978 1.207,-1.319 1.434,-1.662 1.488,-1.744 1.554,-1.825 1.584,-1.916 1.607,-1.982 1.608,-2.093 1.568,-2.131 1.524,-2.173 1.405,-2.187 1.349,-2.157 c -0.213,0.113 -0.417,0.245 -0.62,0.376 -0.203,0.132 -0.397,0.276 -0.603,0.404 -0.13,0.081 -0.222,0.039 -0.252,-0.114 -0.06,-0.298 -0.106,-0.6 -0.162,-0.899 -0.024,-0.131 -0.063,-0.261 -0.089,-0.392 -0.027,-0.131 -0.092,-0.218 -0.234,-0.214 -0.136,0.004 -0.176,0.109 -0.198,0.219 -0.061,0.326 -0.117,0.652 -0.177,0.978 -0.029,0.155 -0.062,0.31 -0.107,0.533"
             style="fill:#575756;fill-opacity:1;fill-rule:evenodd;stroke:none"
             id="path274"
             inkscape:connector-curvature="0" /></g><g
           id="g276"
           transform="translate(32.4829,23.4734)"><path
             d="M 0,0 C 0.372,-0.082 0.474,-0.083 0.667,-0.019 0.834,0.036 0.95,0.155 1.076,0.273 1.493,0.666 1.404,1.012 1.176,1.411 1.107,1.532 0.984,1.602 0.833,1.584 0.664,1.565 0.494,1.55 0.327,1.519 0.155,1.487 0.126,1.438 0.112,1.265 0.101,1.122 0.078,0.981 0.066,0.839 0.042,0.563 0.022,0.288 0,0 M 1.231,-0.371 C 1.301,-0.473 1.365,-0.578 1.44,-0.675 1.666,-0.966 1.895,-1.252 2.123,-1.541 2.222,-1.667 2.311,-1.805 2.424,-1.916 2.489,-1.981 2.593,-2.008 2.682,-2.049 2.841,-2.12 2.893,-2.206 2.872,-2.363 2.854,-2.511 2.74,-2.563 2.624,-2.563 2.305,-2.564 2.002,-2.645 1.696,-2.714 1.627,-2.73 1.552,-2.725 1.481,-2.716 1.326,-2.695 1.232,-2.579 1.282,-2.432 1.356,-2.21 1.26,-2.064 1.133,-1.9 c -0.288,0.378 -0.558,0.769 -0.836,1.154 -0.031,0.043 -0.056,0.094 -0.094,0.13 -0.109,0.102 -0.221,0.072 -0.25,-0.077 -0.03,-0.155 -0.036,-0.314 -0.05,-0.472 -0.025,-0.25 -0.054,-0.499 -0.071,-0.749 -0.017,-0.243 0.01,-0.468 0.273,-0.588 0.13,-0.06 0.174,-0.174 0.147,-0.316 C 0.225,-2.963 0.116,-3 -0.007,-3.003 -0.404,-3.014 -0.76,-3.157 -1.11,-3.321 c -0.21,-0.099 -0.363,-0.081 -0.432,0.048 -0.075,0.139 -0.022,0.32 0.15,0.44 0.226,0.156 0.344,0.348 0.402,0.631 0.078,0.384 0.054,0.769 0.105,1.151 0.049,0.372 0.073,0.747 0.105,1.122 0.026,0.313 0.051,0.625 0.07,0.938 0.011,0.205 -0.033,0.38 -0.23,0.509 -0.163,0.105 -0.114,0.411 0.071,0.491 0.112,0.048 0.243,0.066 0.366,0.07 C -0.207,2.089 0.09,2.077 0.386,2.086 0.583,2.093 0.778,2.124 0.975,2.14 1.253,2.162 1.531,2.167 1.778,2.007 2.021,1.85 2.173,1.631 2.228,1.337 2.293,0.984 2.294,0.652 2.136,0.315 2.054,0.141 1.946,0.01 1.793,-0.083 1.627,-0.186 1.446,-0.263 1.231,-0.371"
             style="fill:#575756;fill-opacity:1;fill-rule:evenodd;stroke:none"
             id="path278"
             inkscape:connector-curvature="0" /></g><g
           id="g280"
           transform="translate(37.9101,23.823)"><path
             d="M 0,0 C -0.061,0.4 -0.107,0.811 -0.193,1.213 -0.229,1.38 -0.33,1.545 -0.438,1.681 -0.636,1.928 -0.872,1.932 -1.118,1.729 -1.511,1.406 -1.636,0.949 -1.741,0.482 -1.762,0.388 -1.768,0.291 -1.791,0.197 c -0.083,-0.333 -0.073,-0.678 -0.042,-1.009 0.035,-0.376 0.126,-0.752 0.344,-1.087 0.223,-0.342 0.566,-0.378 0.84,-0.067 0.175,0.199 0.262,0.44 0.368,0.675 C -0.095,-0.88 -0.082,-0.44 0,0 M 0.844,0.131 C 0.874,-0.32 0.843,-0.727 0.71,-1.108 0.51,-1.682 0.212,-2.215 -0.323,-2.539 c -0.485,-0.294 -1.163,-0.31 -1.661,0.159 -0.409,0.386 -0.584,0.879 -0.733,1.381 -0.095,0.319 -0.107,0.669 -0.066,1.009 0.029,0.24 0.05,0.481 0.091,0.718 0.076,0.433 0.289,0.808 0.538,1.159 0.308,0.436 0.734,0.699 1.276,0.738 0.121,0.008 0.251,-0.02 0.37,-0.056 C 0.044,2.406 0.406,2.047 0.607,1.504 0.778,1.043 0.891,0.58 0.844,0.131"
             style="fill:#575756;fill-opacity:1;fill-rule:evenodd;stroke:none"
             id="path282"
             inkscape:connector-curvature="0" /></g></g></g></g></svg>