<?xml version="1.0" encoding="UTF-8" standalone="no"?>
<!-- Created with Inkscape (http://www.inkscape.org/) -->

<svg
   xmlns:dc="http://purl.org/dc/elements/1.1/"
   xmlns:cc="http://creativecommons.org/ns#"
   xmlns:rdf="http://www.w3.org/1999/02/22-rdf-syntax-ns#"
   xmlns:svg="http://www.w3.org/2000/svg"
   xmlns="http://www.w3.org/2000/svg"
   xmlns:sodipodi="http://sodipodi.sourceforge.net/DTD/sodipodi-0.dtd"
   xmlns:inkscape="http://www.inkscape.org/namespaces/inkscape"
   version="1.1"
   id="svg2"
   width="399.2496"
   height="535.5238"
   viewBox="0 0 399.24959 535.52381"
   sodipodi:docname="logo.svg"
   inkscape:version="0.92.3 (2405546, 2018-03-11)">
  <metadata
     id="metadata8">
    <rdf:RDF>
      <cc:Work
         rdf:about="">
        <dc:format>image/svg+xml</dc:format>
        <dc:type
           rdf:resource="http://purl.org/dc/dcmitype/StillImage" />
        <dc:title />
      </cc:Work>
    </rdf:RDF>
  </metadata>
  <defs
     id="defs6">
    <clipPath
       clipPathUnits="userSpaceOnUse"
       id="clipPath3719">
      <rect
         id="rect3721"
         width="568.38208"
         height="623.07996"
         x="511.30606"
         y="-66.448364" />
    </clipPath>
  </defs>
  <sodipodi:namedview
     pagecolor="#ffffff"
     bordercolor="#666666"
     borderopacity="1"
     objecttolerance="10"
     gridtolerance="10"
     guidetolerance="10"
     inkscape:pageopacity="0"
     inkscape:pageshadow="2"
     inkscape:window-width="1920"
     inkscape:window-height="1017"
     id="namedview4"
     showgrid="false"
     inkscape:zoom="0.59466518"
     inkscape:cx="825.3567"
     inkscape:cy="187.68939"
     inkscape:window-x="0"
     inkscape:window-y="27"
     inkscape:window-maximized="1"
     inkscape:current-layer="svg2" />
  <path
     style="fill:#ffffff;stroke-width:1.33333337"
     d="m 179.90593,534.3032 c -42.951,-5.59838 -87.949297,-33.29284 -119.811497,-73.7387 -12.5114,-15.88184 -12.8834,-16.42263 -20.3942,-29.64519 -18.5085,-32.58366 -30.7962005,-68.88772 -37.1892005,-109.87557 -3.02649996,-19.40398 -3.41709996,-83.15796 -0.6249,-102 5.7725,-38.95372 19.2662005,-81.76488 34.0406005,-108 12.9803,-23.049297 22.7849,-36.005377 41.4951,-54.832727 14.063,-14.15103 22.1356,-21.05211 32.473197,-27.76048 33.0306,-21.43461 61.4045,-29.77513 96.2128,-28.28186998 19.4819,0.83576998 29.2353,2.73551998 46.4084,9.03932998 40.7268,14.94982 84.1813,54.7959 108.5325,99.520017 2.2906,4.20698 4.7172,8.01614 5.3925,8.4648 0.6752,0.44866 1.1144,1.22439 0.9758,1.72386 -0.3999,1.44142 2.9141,8.79374 3.9637,8.79374 0.5221,0 0.9539,0.75 0.9594,1.66666 0.01,0.91667 2.1919,7.10714 4.8587,13.75662 17.2456,43.00062 25.2908,102.66117 20.8446,154.57672 -4.8229,56.31432 -20.5788,104.22936 -48.011,146.00642 -4.2453,6.46523 -7.4651,12.10865 -7.155,12.54093 0.3101,0.4323 0.1924,0.51463 -0.2615,0.18298 -0.4539,-0.33167 -2.8997,1.91833 -5.4352,5 -2.5355,3.08165 -10.1142,11.2168 -16.8414,18.07808 -41.0305,41.84772 -90.7817,61.25616 -140.4334,54.78438 z m 36.2019,-2.63574 c 16.2239,-1.83116 29.5672,-5.63414 44.4164,-12.65915 44.6086,-21.10399 81.5369,-59.27443 105.3656,-108.90995 13.4238,-27.96172 22.2864,-57.60663 27.8196,-93.05462 3.5975,-23.0467 3.2341,-76.49768 -0.6935,-102.01512 -2.9719,-19.30803 -6.4591,-34.9848 -11.1189,-49.98488 -4.3529,-14.01192 -9.452,-26.66667 -10.7452,-26.66667 -0.6607,0 -0.8473,-0.57285 -0.4146,-1.273 0.4327,-0.70014 -2.6057,-8.05014 -6.7521,-16.33333 -23.9712,-47.886907 -60.3143,-84.816817 -103.2575,-104.924747 -40.1148,-18.78356 -87.942,-17.62296 -129.1604,3.13427 -29.6828,14.948 -60.188397,42.64588 -80.638297,73.21642 -3.3675,5.03412 -5.7372,9.776817 -5.2659,10.539347 0.4712,0.76252 0.2282,0.9979 -0.54,0.52308 -2.3043,-1.4241 -19.8431,35.48084 -26.3776,55.50344 -6.7415,20.65674 -13.0011005,50.19272 -15.3845005,72.59234 -2.0961,19.69963 -0.9267,70.85481 2.0504,89.68885 2.7685,17.5151 7.6993005,38.76866 12.2186005,52.66667 4.5349,13.94598 11.3233,30.54843 12.7218,31.11388 0.6083,0.24598 0.8394,0.87866 0.5135,1.40596 -0.998,1.61483 14.065,28.71967 23.2284,41.79782 21.1048,30.12107 59.949297,62.12883 89.517397,73.76199 23.3297,9.17877 48.4107,12.59594 72.4968,9.8774 z m -66.2641,-19.1655 c -4.9119,-1.73372 -9.3581,-2.77106 -9.8804,-2.30521 -0.5223,0.46585 -0.5181,0.0969 0.01,-0.81967 0.5275,-0.91666 0.3421,-1.66666 -0.412,-1.66666 -2.2262,0 -24.1371,-13.26974 -32.6151,-19.75246 -4.3059,-3.29248 -12.754497,-10.84509 -18.774697,-16.7836 -34.5247,-34.056 -57.2341,-78.40856 -68.7921,-134.35399 -5.5307,-26.77077 -7.0414,-46.17747 -6.2102,-79.77663 0.7946,-32.11674 1.8774,-40.36826 7.7209,-58.83745 3.7016,-11.69943 4.5562,-13.18616 9.64,-16.77108 4.6038,-3.24652 6.3504,-3.76702 9.9987,-2.9798 7.3613,1.58841 10.9129,5.99854 10.9129,13.55108 0,5.31405 -0.6428,7.09362 -3.5281,9.76758 -4.2989,3.98414 -10.1678,4.24048 -13.8053,0.603 -3.6096,-3.60966 -3.4748,-9.94938 0.2674,-12.57052 3.5467,-2.4842 5.6439,-0.31877 3.3103,3.41794 -1.1289,1.80777 -1.1227,2.80756 0.025,3.95501 2.3184,2.3184 7.6712,0.37959 9.7678,-3.53795 1.604,-2.99712 1.5861,-3.9608 -0.13,-7.01837 -4.5682,-8.13887 -15.9705,-6.4246 -20.4803,3.07912 -11.9532,25.1896 -15.2695,87.10896 -7.2486,135.34144 8.6049,51.74377 34.1235,107.37151 62.8206,136.9422 2.9938,3.08486 6.0365,5.24216 6.7617,4.79398 0.7251,-0.44817 0.922,-0.17345 0.4375,0.6105 -1.7343,2.80617 24.060297,23.35232 41.996397,33.45138 13.5792,7.64582 26.4326,12.2628 34.4532,12.3757 17.6469,0.24841 27.795,-7.84255 22.4864,-17.92807 -1.9485,-3.70188 -3.7187,-4.86636 -7.4363,-4.89193 -3.8108,-0.0263 -8.1362,6.07409 -5.8956,8.31472 1.1532,1.15316 1.5316,0.80684 1.5316,-1.4018 0,-3.37123 3.3148,-3.97522 4.524,-0.82428 1.2121,3.1587 1.0119,4.16448 -1.286,6.46237 -4.3416,4.34169 -9.9332,0.75096 -9.8623,-6.33333 0.1063,-10.62683 12.4032,-15.33098 20.0601,-7.67399 7.7615,7.76148 3.543,20.802 -8.0067,24.75067 -8.7963,3.00733 -21.8258,2.52822 -32.3599,-1.1899 z m 68.2641,2.36154 c -11.4495,-4.63956 -14.6666,-8.41006 -14.6666,-17.18943 0,-6.38336 5.9352,-12.63032 12,-12.63032 5.5875,0 12,6.27047 12,11.73417 0,4.63838 -2.7142,7.28471 -7.7806,7.58611 -3.328,0.19799 -3.6438,-0.19124 -3.6004,-4.43732 0.055,-5.40307 2.8752,-7.14901 4.4912,-2.78067 0.8769,2.37062 1.2712,2.56412 1.8977,0.9314 1.2664,-3.30016 -2.6937,-7.70036 -6.9302,-7.70036 -7.9635,0 -10.6759,10.94034 -4.2945,17.3217 7.0138,7.01384 24.9465,7.16761 40.9646,0.35128 10.0717,-4.28587 28.6358,-15.50872 38.0557,-23.00631 15.6841,-12.48352 36.7333,-35.87653 48.5897,-54 7.5464,-11.53534 22.1457,-40.87446 21.3592,-42.92402 -0.3678,-0.95845 -0.1098,-1.74265 0.5735,-1.74265 1.6368,0 11.0633,-29.62167 14.4759,-45.48877 9.6835,-45.02481 10.5975,-89.54107 2.7333,-133.12554 -3.1659,-17.54558 -4.9866,-21.79151 -10.9332,-25.4964 -9.7699,-6.08694 -21.6832,3.7444 -15.0792,12.44404 3.609,4.75428 11.2485,1.36781 9.7595,-4.32623 -0.8399,-3.21145 2.3652,-3.71772 3.5751,-0.56472 2.8012,7.29972 -1.0076,13.92425 -7.9623,13.84855 -9.4605,-0.10294 -14.135,-10.50803 -8.7144,-19.39719 3.4655,-5.68309 9.0405,-7.80887 15.7447,-6.0036 10.3297,2.78149 13.4881,9.63753 17.6751,38.36876 11.3479,77.86924 -3.9314,158.6785 -40.7227,215.37457 -3.462,5.33493 -6.3007,10.44987 -6.3083,11.36653 -0.01,0.91667 -0.2853,1.3952 -0.6171,1.06342 -0.3318,-0.33179 -4.3466,4.01821 -8.9217,9.66666 -10.5045,12.96878 -28.8168,30.55144 -38.5499,37.01386 -4.1144,2.73182 -7.4807,5.582 -7.4807,6.33373 0,0.75172 -0.3351,1.03168 -0.7447,0.62212 -0.4096,-0.40956 -4.0799,1.26375 -8.1564,3.71847 -14.4511,8.70202 -26.6951,12.90217 -39.0989,13.4124 -6.2334,0.25641 -12.2334,0.10146 -13.3334,-0.34424 z m -49.3333,-62.7456 c -9.0839,-0.53584 -42.9983,-4.2738 -48.1817,-5.31048 -4.781,-0.9562 -4.8701,-3.1757 -1.1007,-27.42495 1.4947,-9.61575 2.4135,-18.27568 2.0419,-19.2443 -0.3717,-0.9686 -0.1875,-1.76109 0.4093,-1.76109 1.7414,0 4.4135,-26.10879 3.522,-34.41304 -0.4479,-4.17283 -1.4686,-10.15136 -2.2682,-13.28564 -1.2726,-4.98847 -1.8049,-5.57772 -4.2715,-4.72821 -8.1685,2.81325 -15.4845,-1.46459 -15.4845,-9.05415 0,-3.10223 -0.5841,-3.85483 -3,-3.86532 -1.649997,-0.007 -6.209497,-1.50716 -10.132397,-3.33333 -11.9088,-5.54387 -26.9047,-3.56724 -34.0742,4.49138 -3.7873,4.25691 -4.7939,3.52567 -4.7884,-3.47836 0.01,-8.22783 3.5918,-14.04091 10.5547,-17.11295 4.1435,-1.82806 5.4403,-3.14814 5.4403,-5.53758 0,-1.72555 1.4364,-4.57371 3.192,-6.32927 1.7555,-1.75556 2.9347,-3.44905 2.6205,-3.76332 -0.3143,-0.31427 0.9004,-0.29004 2.6992,0.0539 3.1365,0.59957 3.2401,0.3973 2.5258,-4.92882 -0.5739,-4.27829 -0.1326,-6.38242 1.9213,-9.16042 1.4665,-1.98351 3.1372,-5.09478 3.7126,-6.91392 1.9266,-6.09016 4.9165,-9.27675 10.1853,-10.85532 7.345397,-2.20074 8.820697,-0.32707 5.2514,6.66934 -5.09,9.97716 -3.1368,21.6514 5.170597,30.90456 6.4067,7.13618 8.4106,11.65843 7.4456,16.80251 -0.7847,4.18299 -0.5965,4.50469 2.6363,4.50469 1.9148,0 4.6917,0.64772 6.1709,1.43937 2.91,1.55741 9.101,13.62609 9.1222,17.78286 0.032,6.27546 1.8671,-1.10082 8.1365,-32.70407 7.0959,-35.76944 7.3762,-40.91696 2.6519,-48.68556 -2.0699,-3.40361 -3.1441,-3.9833 -6.4754,-3.49437 -5.1746,0.75947 -9.3866,-1.5578 -10.4368,-5.74185 -0.7237,-2.88364 -1.3917,-3.23006 -5.0157,-2.60127 -2.3294,0.40415 -5.4293,-0.0247 -7,-0.9682 -9.6533,-5.79905 -14.323497,-7.69361 -18.964897,-7.69361 -5.4259,0 -14.0827,2.96037 -15.5368,5.31313 -2.1553,3.48732 -3.6537,1.00815 -2.9836,-4.93655 0.5364,-4.75872 1.6679,-7.14685 4.6476,-9.80928 2.1663,-1.93557 4.3406,-5.12029 4.8317,-7.07717 1.2057,-4.80364 5.4624,-8.82347 9.3435,-8.82347 2.6194,0 3.3499,-0.87954 4.1143,-4.95392 1.8542,-9.88419 7.437097,-16.67583 16.177997,-19.6808 7.3322,-2.52068 8.6517,-1.51548 5.675,4.32316 -3.0945,6.06967 -3.2657,17.60221 -0.3451,23.24998 1.1773,2.27664 3.8773,6.53686 6,9.46717 2.1227,2.93032 3.8595,6.98165 3.8595,9.00297 0,2.9427 0.5004,3.54427 2.5109,3.01851 5.0489,-1.32032 10.4516,3.09405 13.3862,10.93732 1.5232,4.07127 2.817,8.4298 2.8749,9.68563 0.058,1.25582 2.4495,-7.91668 5.3147,-20.38335 2.8652,-12.46667 6.1178,-25.7194 7.228,-29.45052 3.9925,-13.41735 2.1528,-21.88282 -4.7556,-21.88282 -5.3394,0 -10.5591,-5.24288 -10.5591,-10.60606 0,-3.5992 -0.4429,-4.0606 -3.8977,-4.0606 -2.2006,0 -5.6034,-1.43523 -7.815,-3.29616 -2.1545,-1.81288 -4.3967,-2.86288 -4.9827,-2.33334 -0.586,0.52956 -0.6497,0.23838 -0.1415,-0.64705 1.3736,-2.39305 -6.0673,-5.72345 -12.7874,-5.72345 -3.9435,0 -7.3018,1.04992 -10.6621,3.33333 -6.127497,4.16373 -6.381397,4.15047 -6.375297,-0.33333 0.01,-4.92538 4.482797,-11.97791 9.358197,-14.74466 2.5154,-1.42741 3.7029,-2.97462 3.2351,-4.2147 -0.4066,-1.07764 -0.3287,-1.54883 0.1731,-1.04707 0.5017,0.50175 2.1669,0.0335 3.7004,-1.04065 1.5335,-1.07411 5.4228,-1.95292 8.6429,-1.95292 5.849,0 5.854,-0.004 5.2081,-4.33334 -0.8916,-5.9762 0.9513,-10.10034 4.9634,-11.1073 1.8592,-0.46664 3.3805,-1.63986 3.3805,-2.60714 0,-2.59896 6.5484,-7.28556 10.1798,-7.28556 3.6998,0 3.8204,0.74497 1.1535,7.12768 -2.9494,7.05884 -2.4724,12.74755 2.1057,25.1147 2.7699,7.48273 3.8816,12.50072 3.4171,15.42429 -0.5678,3.57417 -0.2567,4.33333 1.7759,4.33333 4.7258,0 11.9957,12.00111 12.0272,19.85436 0,1.0199 1.8843,-1.6801 4.1782,-6 5.1485,-9.69581 8.0224,-13.93964 15.3951,-22.73368 5.5279,-6.59349 5.7675,-7.24617 5.7675,-15.70852 0,-7.25397 -0.4163,-8.9537 -2.3333,-9.52714 -7.0259,-2.10163 -9,-3.98862 -9,-8.60281 0,-4.03167 0.6492,-4.93259 5.1321,-7.12183 2.8227,-1.37846 4.602,-2.87846 3.9541,-3.33333 -3.464,-2.43169 -7.1054,-9.16344 -8.4436,-15.60933 -2.5541,-12.303257 -13.7839,-20.548697 -25.4461,-18.683837 -9.8314,1.57211 -5.2967,-4.00638 8.7154,-10.72151 5.1404,-2.46347 10.105,-4.47904 11.0326,-4.47904 0.9275,0 2.5217,-1.99926 3.5427,-4.4428 1.0209,-2.44354 3.3378,-5.60814 5.1485,-7.03244 1.8107,-1.42431 4.0124,-4.77199 4.8927,-7.4393 1.6847,-5.10455 3.5368,-6.41879 9.0457,-6.41879 4.2242,0 11.0925,7.11219 11.0925,11.48648 0,1.76245 1.8415,5.13139 4.0922,7.48653 2.2507,2.35513 4.3947,5.79967 4.7644,7.65453 0.6311,3.1656 1.1003,3.34536 7.6507,2.93064 6.2126,-0.39334 7.4456,-0.005 11.2356,3.53494 2.3414,2.18723 4.2571,4.55936 4.2571,5.27142 0,0.71205 -2.2974,1.66202 -5.1054,2.11104 -5.7967,0.92691 -12.8104,5.27258 -16.448,10.19109 -1.3559,1.83333 -3.1265,7.091317 -3.9348,11.684407 -1.0758,6.11312 -2.3239,9.02306 -4.6574,10.85856 -3.582,2.81766 -4.0318,4.1237 -1.4201,4.1237 2.3608,0 7.5657,5.64997 7.5657,8.21261 0,2.56659 -3.5733,5.85091 -8.3357,7.66159 -3.4699,1.31922 -3.6643,1.8457 -3.6643,9.92521 0,7.94392 0.3301,8.88829 4.7881,13.69967 6.1879,6.67833 12.1135,15.20824 17.3471,24.97128 l 4.1833,7.8037 0.8938,-4.76445 c 1.0015,-5.33847 6.2179,-12.2708 10.1796,-13.5282 1.9902,-0.63167 2.6081,-2.03699 2.6081,-5.93165 0,-2.80714 1.8,-9.3338 4,-14.50374 4.6268,-10.87285 4.9743,-17.27065 1.3693,-25.21269 l -2.5722,-5.66667 h 3.8741 c 2.8785,0 5.8213,1.87095 11.4509,7.2801 7.1477,6.8679 7.5376,7.5715 6.8863,12.42734 l -0.6904,5.14727 6.4729,-0.094 c 5.4964,-0.0799 7.0654,0.50948 10.3994,3.90597 2.1594,2.2 5.7611,5.38408 8.0037,7.07575 2.5409,1.91672 4.6245,5.10763 5.5293,8.46792 1.6414,6.0954 0.8678,7.79208 -2.4539,5.38237 -10.3865,-7.53481 -19.4184,-6.9915 -29.0792,1.74923 -4.7283,4.27799 -7.6702,5.91453 -10.6902,5.94683 -3.5539,0.038 -4.2849,0.63606 -4.971,4.06657 -0.9512,4.75559 -6.1833,7.45868 -10.2374,5.28897 -2.0358,-1.08952 -2.9087,-0.76194 -4.4406,1.66648 -3.4019,5.39288 -3.5865,8.40506 -0.9793,15.98288 1.4096,4.09703 4.834,18.63794 7.6099,32.31313 4.8518,23.90241 5.1051,24.66794 6.5499,19.79525 3.1501,-10.62385 7.9282,-16.31691 13.7411,-16.37239 2.704,-0.0259 2.9999,-0.5128 2.2861,-3.76238 -0.6062,-2.76018 0.051,-4.93139 2.5228,-8.33334 10.2071,-14.04841 10.5987,-14.83599 11.1318,-22.38784 0.3265,-4.62617 -0.2479,-9.79508 -1.4845,-13.35827 l -2.0171,-5.81216 4.0746,0.81491 c 9.5562,1.91127 18.288,11.81087 18.4318,20.89705 0.034,2.17438 1.4647,4.13376 4.3333,5.93614 2.3551,1.47973 4.8916,4.47973 5.6368,6.66667 0.7451,2.18693 3.5951,6.16624 6.3333,8.8429 4.3592,4.26123 4.9785,5.64992 4.9785,11.16263 0,6.29216 -10e-4,6.29464 -3,4.09579 -9.7981,-7.18586 -20.7946,-7.74554 -29.9499,-1.52435 -2.8394,1.92944 -6.8864,3.39925 -9.3596,3.39925 -3.8996,0 -4.3571,0.39831 -4.3571,3.79335 0,2.08635 -1.0973,4.78635 -2.4384,6 -2.7167,2.45857 -10.9322,2.9694 -13.0878,0.81379 -0.9683,-0.96827 -2.2524,1.2254 -4.2125,7.19613 l -2.8195,8.589 6.0276,31.80387 c 7.9943,42.18059 7.308,39.58139 8.8488,33.51567 0.7806,-3.07276 3.2939,-6.79358 6.6166,-9.79546 4.3541,-3.93362 6.182,-4.74437 9.7563,-4.32709 4.172,0.48705 4.3017,0.37545 2.5203,-2.1679 -1.033,-1.47476 -1.8781,-5.41602 -1.8781,-8.75836 0,-4.94145 1.1235,-7.81348 6.0125,-15.37 9.1217,-14.0988 10.2307,-21.47009 5.1909,-34.50373 -0.8904,-2.30245 -0.5076,-2.46679 4.0304,-1.73037 13.5804,2.20381 22.3391,18.78238 16.1704,30.60777 -1.8826,3.60897 -1.85,3.66667 2.0744,3.66667 6.154,0 11.8547,3.4997 11.8547,7.27772 0,2.02416 0.972,3.51773 2.6321,4.04461 5.3323,1.69244 8.8286,9.19124 8.242,17.67767 -0.2667,3.85833 -1.9578,3.79505 -5.9765,-0.22364 -3.8163,-3.81631 -12.0239,-6.36315 -16.8163,-5.21819 -1.878,0.44867 -6.0716,2.58353 -9.319,4.74415 -4.6911,3.12108 -7.0616,3.83617 -11.5353,3.47969 -4.9897,-0.39758 -5.4903,-0.1861 -4.3966,1.8573 1.7131,3.20081 0.081,8.70481 -3.2794,11.05846 -3.7494,2.62622 -5.7041,2.4824 -8.8367,-0.65016 -2.3599,-2.35993 -2.8225,-2.4156 -4.6754,-0.56269 -7.5725,7.57255 -7.8623,15.33485 -2.0038,53.67064 2.7607,18.06444 5.685,36.42015 6.4985,40.79046 1.8323,9.84288 0.9308,10.99268 -9.948,12.6891 -21.6195,3.37131 -71.5977,4.89424 -101.9189,3.1057 z m -17.828,-16.93089 c 37.9078,-4.09432 82.5158,-3.95182 114.1613,0.36466 5.7838,0.78891 7.6667,0.63853 7.6667,-0.6123 0,-6.25106 -14.5065,-99.58492 -19.8782,-127.89563 -9.7852,-51.57022 -19.5246,-96.42353 -22.6607,-104.36003 -6.4237,-16.2564 -16.0366,-31.99733 -24.6149,-40.30664 -4.7155,-4.56756 -4.8181,-4.88613 -4.832,-15 -0.012,-8.28998 -0.4097,-10.33333 -2.0142,-10.33333 -1.6209,0 -2,2.14815 -2,11.33333 0,9.10587 -0.387,11.33334 -1.969,11.33334 -2.3048,0 -10.5259,10.06645 -17.1418,20.98964 -5.9085,9.75524 -14.6138,30.73437 -13.7198,33.06388 0.3744,0.97581 0.1377,1.96296 -0.526,2.19367 -1.3193,0.45856 -12.7052,50.20117 -21.1546,92.41948 -6.9888,34.92084 -21.4888,122.16424 -21.4888,129.2938 0,1.27943 1.4321,1.4277 5.8387,0.60447 3.2112,-0.59993 14.1612,-1.98968 24.3333,-3.08834 z m -19.5054,-7.66294 c 0,-0.83582 1.0076,-2.25642 2.2391,-3.15688 2.8945,-2.11655 5.9516,-34.14878 3.3421,-35.01862 -0.8696,-0.28988 -1.5812,-1.67705 -1.5812,-3.0826 0,-2.32802 1.0617,-2.55556 11.9245,-2.55556 10.8108,0 12.1182,0.27674 14,2.96335 3.2662,4.66316 2.5846,10.06609 -1.8263,14.47697 l -3.9019,3.90187 5.2662,6.66224 c 2.8964,3.66423 5.8523,6.66224 6.5686,6.66224 0.7162,0 1.3023,0.9 1.3023,2 0,1.1 -1.125,2 -2.5,2 -1.375,0 -4.375,0.375 -6.6667,0.83333 -3.4733,0.69467 -4.1738,0.41735 -4.2097,-1.66666 -0.024,-1.375 -2.3463,-5.68406 -5.1616,-9.57567 -5.6815,-7.85377 -6.7954,-7.32489 -6.7954,3.22656 0,4.04361 0.6369,6.17719 2,6.70027 3.6562,1.403 2.0757,2.93762 -5.2052,5.05422 -8.6042,2.50134 -8.7948,2.51379 -8.7948,0.57494 z m 21.8934,-29.02908 c 1.3644,-1.50764 2.1296,-4.09467 1.8733,-6.33334 -0.3728,-3.25604 -0.968,-3.74641 -4.2621,-3.51136 -4.8503,0.34611 -4.9172,0.42648 -5.7922,6.95 -0.6841,5.10032 -0.522,5.44346 2.5721,5.44346 1.8163,0 4.3402,-1.14694 5.6089,-2.54876 z m 106.44,26.59248 c -7.1038,-2.03895 -8.7623,-4.25834 -4.8276,-6.46028 1.7351,-0.971 1.9157,-1.99087 0.8973,-5.06626 -0.9818,-2.96486 -2.2107,-3.94382 -5.343,-4.2562 -3.4022,-0.33928 -4.2072,0.1491 -4.9187,2.9839 -0.4736,1.88701 -0.1248,4.55193 0.7868,6.0117 0.9007,1.44218 1.2842,2.9755 0.8524,3.40736 -0.84,0.83994 -23.5097,-1.67249 -25.3492,-2.80937 -1.9192,-1.18615 -1.1874,-2.85351 1.5687,-3.57424 2.4233,-0.63372 2.6573,-1.77331 2.5645,-12.48884 l -0.1021,-11.79149 -3.7958,8 c -2.0876,4.4 -3.8417,8.75 -3.8979,9.66666 -0.2208,3.60388 -2.7363,1.29628 -7.2673,-6.66666 l -4.7418,-8.33334 -0.046,9.65538 c -0.04,8.24077 0.3442,9.89934 2.6202,11.32072 4.7937,2.99376 3.1774,5.0239 -4,5.0239 -6.9791,0 -8.1956,-1.32826 -4.5527,-4.97118 1.7893,-1.78926 1.9721,-4.28394 1.19,-16.2381 -0.5083,-7.76822 -1.4596,-14.69405 -2.1141,-15.39072 -2.7195,-2.89493 -1.1173,-4.73333 4.1251,-4.73333 5.2182,0 5.3965,0.16177 9.7974,8.89153 l 4.4826,8.89154 3.262,-8.5582 c 3.4431,-9.03366 5.487,-10.43155 12.6306,-8.63862 3.0977,0.77747 3.1419,0.95138 1.1978,4.71096 -1.3857,2.67959 -2.0187,7.86224 -2.0187,16.52752 0,14.34482 0.6066,16.84194 4.0913,16.84194 2.6862,0 2.927,-0.69575 7.9828,-23.06911 2.6212,-11.59967 3.2574,-13.02385 5.6583,-12.66667 2.2293,0.33167 3.71,3.64699 8.4195,18.85196 3.143,10.14724 6.3906,19.26422 7.217,20.25995 0.8264,0.99573 1.3064,2.90535 1.0668,4.24359 -0.4109,2.29496 -0.8333,2.31904 -7.4357,0.424 z m -7.9524,-24.0645 c -1.0605,-4.05532 -2.6649,-4.35481 -3.3769,-0.63036 -0.4823,2.52278 -0.069,3.3178 1.7227,3.3178 1.7066,0 2.163,-0.74156 1.6542,-2.68744 z m -78.0963,17.33978 c -7.5796,-5.96207 -9.7645,-22.72219 -4.3317,-33.22794 2.3593,-4.56242 9.1826,-9.41142 13.2545,-9.41941 4.3386,-0.008 11.2414,6.32912 12.7295,11.68708 5.7077,20.55204 -8.6978,41.15028 -21.6523,30.96027 z m 12.2631,-8.40663 c 3.2692,-6.7534 3.6251,-16.32216 0.8536,-22.9552 -2.4515,-5.86723 -5.0856,-5.86157 -8.7198,0.0187 -3.8866,6.28868 -4.9227,17.2704 -2.236,23.70044 2.9032,6.9484 6.5004,6.67636 10.1022,-0.76396 z m -35.8811,-56.27429 c 0,-1.11572 1.4783,-2.70214 3.2851,-3.52536 1.8068,-0.82324 4.9568,-3.90907 7,-6.85743 l 3.7149,-5.36063 v -38.56513 c 0,-38.38482 -0.014,-38.57651 -3,-40.9944 -1.65,-1.33608 -3,-3.01888 -3,-3.73954 0,-1.80217 3.8955,-3.14178 6.6208,-2.27682 1.4908,0.47314 2.8679,-0.45092 4.0984,-2.75019 2.1847,-4.08219 8.2385,-7.55153 11.1964,-6.41649 3.0039,1.1527 2.597,2.91202 -1.8428,7.96877 -5.3623,6.10728 -6.7233,12.02663 -6.732,29.27913 -0.01,16.37076 0.6633,17.93334 7.7073,17.93334 h 4.5147 l -0.4481,-22.00127 -0.448,-22.00128 10.3802,0.001 c 11.5313,0.001 15.7488,1.80468 19.0213,8.13305 3.5768,6.9168 1.2204,19.22868 -4.2682,22.30023 -2.3462,1.31301 -2.3303,1.50211 0.3751,4.46951 1.5538,1.70416 3.5211,4.44848 4.3719,6.09848 1.153,2.23625 2.723,3 6.1666,3 h 4.6198 l -0.029,-18.33334 c -0.024,-15.21914 -0.4662,-19.29589 -2.6015,-24 -2.074,-4.56901 -3.2485,-5.66666 -6.0635,-5.66666 -2.8579,0 -3.4139,-0.54423 -3.0652,-3 0.7251,-5.10492 6.656,-4.65659 12.8887,0.97425 3.144,2.84037 5.6634,4.23388 6.1707,3.41303 1.2174,-1.9697 7.3667,-1.72596 7.3667,0.29198 0,0.9236 -1.2,2.4287 -2.6667,3.34464 -2.5672,1.60326 -2.6666,3.10936 -2.6666,40.38694 0,41.97228 0.221,43.42308 7.4865,49.13809 1.9469,1.53143 4.9234,2.7844 6.6146,2.7844 1.6912,0 3.4619,0.62628 3.935,1.39174 1.5126,2.44746 -2.2147,5.27493 -6.9537,5.27493 -5.6282,0 -9.5166,-1.85243 -13.3004,-6.33619 -2.6908,-3.18861 -3.0338,-3.26918 -5.104,-1.19898 -3.394,3.39398 -6.9297,4.94406 -9.2481,4.05441 -2.8133,-1.07957 -2.642,-2.28667 0.7541,-5.31259 5.1045,-4.54812 6.4827,-10.1813 6.4827,-26.49716 v -15.37616 l -3.6667,0.007 c -3.6348,0.007 -3.6669,0.0853 -3.7,9.03012 -0.028,7.56808 -0.6949,10.20097 -4.1358,16.32643 -5.7406,10.21914 -11.1702,13.70081 -20.2319,12.97333 -3.9674,-0.31852 -7.9864,-1.48615 -9.1621,-2.66187 -1.9037,-1.90372 -1.8976,-2.37557 0.068,-5.18136 1.6552,-2.36304 2.1621,-6.31614 2.1621,-16.86305 v -13.77638 l -6.3333,0.40639 -6.3334,0.40639 -0.4138,13.33333 c -0.4484,14.44974 1.1159,22.32022 5.3469,26.9013 4.6354,5.01888 -0.5291,7.96746 -6.5584,3.7444 -2.4449,-1.71248 -3.0499,-1.73711 -3.9633,-0.16135 -1.6283,2.80891 -10.0139,7.50503 -13.4114,7.51067 -1.7987,0.003 -3,-0.8073 -3,-2.0236 z m 53.8304,-24.49056 c 1.7919,-3.07659 2.8258,-7.86473 3.2389,-15.00001 l 0.6067,-10.48085 h -8.2963 -8.2962 l 0.4582,13.13208 c 0.4901,14.04207 2.0725,17.97846 6.9408,17.2656 1.4937,-0.21872 3.9003,-2.43129 5.3479,-4.91682 z m 0.8363,-31.54707 c 0,-0.40308 -0.9154,-2.50308 -2.0342,-4.66667 -1.6605,-3.21099 -2.8854,-3.93379 -6.6667,-3.93379 -4.4053,0 -4.6324,0.22879 -4.6324,4.66667 v 4.66667 h 6.6666 c 3.6667,0 6.6667,-0.3298 6.6667,-0.73288 z m -2.02,-18.75704 c 2.8816,-4.39798 2.9371,-11.57847 0.1226,-15.87396 -2.335,-3.56364 -4.7933,-4.09728 -8.8569,-1.92255 -2.1962,1.17537 -2.579,2.85761 -2.579,11.33333 v 9.9531 h 4.5133 c 3.3969,0 5.079,-0.86327 6.8,-3.48992 z m -5.1524,-53.51008 c -0.377,-1.28334 -1.0814,-4.56818 -1.5652,-7.29964 l -0.8799,-4.96631 -5.8691,4.03807 c -7.4308,5.1125 -9.4596,4.00704 -5.1564,-2.80967 3.6854,-5.83807 4.1226,-7.95883 1.643,-7.9699 -0.9167,-0.004 -4.0456,-0.66788 -6.9531,-1.47509 -4.7141,-1.30875 -5.0359,-1.65089 -2.9721,-3.15995 1.2728,-0.93076 4.6857,-2.07148 7.584,-2.53494 l 5.2697,-0.84266 -4.0193,-6.32329 c -4.8475,-7.6262 -2.8655,-9.09496 5.0316,-3.72872 l 5.0548,3.43483 0.8638,-3.68138 c 0.4751,-2.02474 1.2375,-5.33136 1.6943,-7.34802 1.1683,-5.15847 2.9919,-4.55599 4.0357,1.33333 1.7948,10.12719 1.6846,10.02961 7.1399,6.32265 4.6089,-3.1318 8.2707,-4.26526 8.2707,-2.56008 0,0.41942 -1.5483,3.4046 -3.4407,6.63374 l -3.4408,5.87116 5.2569,0.84061 c 7.0894,1.13364 9.6498,2.78057 6.9852,4.49309 -1.085,0.69732 -4.235,1.65006 -7,2.1172 -2.765,0.46715 -5.0273,1.12846 -5.0273,1.46956 0,0.34112 1.5,2.82766 3.3334,5.52566 3.0919,4.5502 4.2814,8.28641 2.638,8.28641 -0.3823,0 -3.1287,-1.61041 -6.103,-3.57868 -6.1261,-4.05412 -7.0347,-3.5036 -8.4098,5.09588 -0.8638,5.40228 -2.8005,6.77802 -3.9643,2.81614 z m 5.1724,-23.00001 c 0,-2.66666 -0.6667,-3.33333 -3.3333,-3.33333 -2.6667,0 -3.4196,0.75293 -3.7647,3.76469 -0.3924,3.42456 -0.091,3.72571 3.3333,3.33334 3.0118,-0.3451 3.7647,-1.09803 3.7647,-3.7647 z m -76.5729,137.94654 c -3.4014,-9.67762 -6.0469,-12.6132 -11.3671,-12.6132 -4.9106,0 -7.3934,2.0496 -7.3934,6.10342 0,4.171 3.1673,6.29137 7.8586,5.26098 6.8561,-1.50584 11.7146,6.3241 12.3909,19.96894 0.1716,3.46172 0.4292,2.4572 0.7342,-2.86246 0.3322,-5.79646 -0.3186,-10.4388 -2.2232,-15.85768 z m 152.84,-3.78574 c 5.3374,-2.70275 5.2789,-2.70758 6.1192,0.50588 0.8416,3.21802 4.3335,3.52194 5.5013,0.4788 1.2331,-3.21347 -2.7445,-8.4788 -6.4052,-8.4788 -4.0266,0 -9.6187,4.42746 -12.3581,9.7844 -2.0968,4.10022 -2.0869,4.15613 0.36,2.04305 1.3836,-1.19491 4.4359,-3.14491 6.7828,-4.33333 z M 77.538533,321.71041 c 9.5105,0 11.4093,0.42701 16.3048,3.66667 7.288897,4.82363 10.342597,4.67469 13.669197,-0.66667 3.6496,-5.86004 2.5324,-10.65685 -4.1775,-17.93628 -2.9868,-3.24028 -6.284797,-7.93592 -7.328897,-10.43475 -2.4713,-5.91466 -2.4228,-16.79253 0.1018,-22.83462 2.5496,-6.10224 2.6389,-5.87835 -1.735,-4.3536 -4.3497,1.51629 -8.265,7.44277 -8.265,12.51033 0,1.9468 -0.5699,3.18741 -1.2665,2.75693 -0.6965,-0.43049 -1.8965,0.39466 -2.6666,1.83366 -2.9557,5.52277 -1.6201,8.59377 7.1477,16.43442 9.0959,8.13402 14.710997,18.29827 11.746397,21.26284 -2.599597,2.59967 -5.342997,0.0643 -6.289597,-5.81276 -1.0989,-6.82242 -4.1914,-12.21356 -6.2694,-10.92932 -0.8632,0.53352 -1.1075,0.31127 -0.5857,-0.53294 1.3308,-2.15351 -4.4559,-5.63058 -9.3708,-5.63058 -5.0118,0 -8.4456,3.91531 -8.4456,9.63002 0,2.58637 -0.6789,3.70332 -2.2508,3.70332 -3.2686,0 -10.706,5.44632 -12.3426,9.0383 -2.89,6.34291 -1.614,7.01194 4.9267,2.58326 5.8362,-3.95163 7.1783,-4.28823 17.0974,-4.28823 z m 231.902697,-0.66667 c 8.4599,-5.01825 15.061,-5.19434 22.8828,-0.61046 4.7235,2.76816 5.7838,3.00398 5.7838,1.28642 0,-3.5153 -3.9579,-8.40042 -7.927,-9.78408 -3.0087,-1.04882 -3.6302,-1.94034 -3.14,-4.5044 0.4718,-2.46832 -0.1868,-3.5603 -2.8904,-4.79213 -10.1341,-4.61743 -19.5715,0.99313 -22.5475,13.40465 -0.919,3.83267 -5.3011,5.17882 -6.5106,2 -1.2235,-3.21577 1.5277,-7.34917 9.5164,-14.29754 11.5811,-10.07292 13.7878,-19.60131 6.8091,-29.40191 -2.645,-3.71456 -10.2388,-8.8162 -11.3977,-7.65723 -0.2787,0.27864 0.1409,2.85202 0.9324,5.7186 1.784,6.461 0.6993,15.02471 -2.7626,21.81059 -1.449,2.84019 -2.2102,5.63445 -1.6916,6.20949 0.5186,0.57504 0.2267,0.63482 -0.6487,0.1328 -1.9021,-1.09082 -8.4084,9.35522 -8.4084,13.5 0,1.52931 1.5533,4.6266 3.4518,6.88286 4.4797,5.32377 9.6971,5.35255 18.5482,0.10226 z m -167.3443,-67.72986 c -3.4742,-8.07587 -8.0088,-10.77087 -12.8195,-7.61876 -3.5732,2.3412 -4.1286,6.22624 -1.2336,8.62885 2.0579,1.70787 7.3973,0.71892 7.3973,-1.37008 0,-2.88859 2.8007,-0.87123 5.6269,4.05309 3.9909,6.9537 4.6269,4.67072 1.0289,-3.6931 z m 129.5689,-0.89732 c 2.8271,-6.20484 -4.1372,-9.82016 -10.4285,-5.4136 -3.2434,2.27182 -5.1957,7.57166 -2.3929,6.49612 0.9725,-0.37316 2.8546,-0.0465 4.1824,0.72588 3.9864,2.31878 7.0508,1.67732 8.639,-1.8084 z m -150.4045,-8.80292 c 4.7022,-3.69876 4.5446,-8.71098 -0.465,-14.7885 -2.188,-2.6544 -4.588,-6.43016 -5.3333,-8.39058 -1.7383,-4.57204 -1.7506,-18.17726 -0.021,-22.72762 1.2365,-3.25213 1.1138,-3.44344 -1.6667,-2.60023 -6.4693,1.9619 -12.0918,9.41332 -13.5693,17.98311 -0.749397,4.34695 -0.439497,4.84447 5.2333,8.40099 7.3273,4.59387 17.2503,18.2196 13.2685,18.2196 -3.8549,0 -20.600497,-15.29087 -20.600497,-18.81087 0,-2.02076 -7.5734,-1.30961 -9.3922,0.88191 -0.9454,1.13908 -1.7189,3.83908 -1.7189,6 0,2.16093 -0.6113,3.92896 -1.3585,3.92896 -1.6435,0 -7.5304,5.36755 -7.5304,6.86608 0,0.58736 1.5391,0.48277 3.4202,-0.23241 1.881,-0.71519 6.831,-1.29283 11,-1.28366 6.1951,0.0136 9.041397,0.85882 15.579797,4.62631 4.4,2.53528 8.3691,4.62777 8.8202,4.64997 0.4511,0.0223 2.4011,-1.20317 4.3334,-2.72306 z m 167.6834,-3.5699 c 5.7094,-2.95557 8.7716,-3.6473 15.7898,-3.56681 4.7886,0.0549 10.0567,0.82604 11.7067,1.71359 1.65,0.88754 3,1.17544 3,0.63976 0,-1.71864 -7.1034,-8.4532 -8.9162,-8.4532 -0.9867,0 -1.7505,-1.48095 -1.7505,-3.39394 0,-1.89976 -1.5668,-4.96069 -3.5588,-6.95272 l -3.5588,-3.55877 -2.3176,5.45725 c -2.5914,6.10168 -6.946,9.78151 -11.5751,9.78151 -2.7395,0 -2.9128,-0.31896 -1.5534,-2.85905 0.8415,-1.57247 3.9413,-5.47492 6.8884,-8.67211 4.8959,-5.31147 5.2947,-6.28751 4.6208,-11.31158 -0.7751,-5.77862 -8.1319,-14.95146 -13.0156,-16.2286 -2.0734,-0.54221 -2.2407,-0.16617 -1.1739,2.63966 1.9173,5.04284 1.4748,17.29733 -0.8236,22.80784 -1.1372,2.72644 -3.9122,6.86312 -6.1666,9.1926 -4.9645,5.12955 -5.397,10.55248 -1.1181,14.01733 3.9349,3.18631 5.1682,3.07206 13.5225,-1.25276 z m -125.4796,-55.59415 c -0.83,-2.5149 -2.7185,-6.11005 -4.1966,-7.98921 -4.3551,-5.53657 -11.8273,-3.90447 -11.8273,2.58336 0,3.89995 2.5066,6 7.1616,6 4.3442,0 8.7504,3.20439 8.993,6.53999 0.125,1.7176 0.2724,1.67577 0.7665,-0.21744 0.3366,-1.28927 -0.067,-4.40178 -0.8972,-6.9167 z m 81.3837,-1.73918 c 1.9129,3.20753 4.8909,2.92704 5.9992,-0.56507 0.9261,-2.9176 -2.0416,-6.43493 -5.4293,-6.43493 -1.7916,0 -6.3621,4.80481 -8.4776,8.91234 -2.4268,4.71191 -1.7558,4.74099 2.5081,0.10867 3.6286,-3.94215 4.1398,-4.13348 5.3996,-2.02104 z m 21.3308,-11.7709 c 2.5272,-2.62398 6.6182,-5.62398 9.0911,-6.66666 5.2615,-2.2185 15.2351,-2.49019 18.9248,-0.51554 4.1682,2.23076 3.0149,-0.79517 -1.7543,-4.60289 -2.3834,-1.90283 -5.6856,-4.79595 -7.3384,-6.42915 -2.2156,-2.18945 -4.4715,-2.931 -8.588,-2.82305 -5.9602,0.15628 -6.9348,0.98455 -13.0083,11.05577 -1.7975,2.9805 -4.1225,5.41908 -5.1667,5.41908 -3.3348,0 -0.5773,-8.2006 4.5091,-13.4095 2.9388,-3.00962 4.981,-6.61962 5.4783,-9.68384 0.7403,-4.56206 0.3273,-5.32946 -6.2393,-11.59231 -3.8676,-3.68876 -7.3147,-6.42415 -7.6602,-6.07865 -0.3455,0.3455 0.041,2.54834 0.8593,4.89521 2.4532,7.03733 1.7103,14.1584 -2.5125,24.08179 -4.5365,10.66053 -4.9696,15.17261 -1.7934,18.68232 3.6955,4.08341 9.9426,3.12465 15.1985,-2.33258 z m -116.9489,-1.70466 c 3.0148,-2.65138 2.421,-7.73307 -1.9887,-17.01891 -3.2627,-6.87073 -4.3276,-21.87171 -2.008,-28.28664 1.0391,-2.87374 0.9052,-2.99619 -1.7328,-1.58439 -1.5724,0.84152 -3.4683,2.8676 -4.2132,4.50241 -0.7448,1.63479 -2.6651,3.54778 -4.2672,4.25106 -2.1176,0.92955 -3.0266,2.65349 -3.3289,6.31363 -0.353,4.27313 0.3905,5.95102 4.9138,11.08976 2.9313,3.33016 5.7256,7.85734 6.2094,10.06041 1.8623,8.47887 -2.8076,5.80727 -8.9864,-5.14108 -3.9134,-6.93405 -4.0729,-7.04403 -10.2179,-7.04403 -5.0733,0 -6.8975,0.68674 -9.7396,3.66667 -1.9233,2.01667 -5.3867,5.08693 -7.6963,6.8228 -5.3084,3.98976 -4.5132,4.81737 2.5853,2.69063 7.5333,-2.25706 16.4064,0.1112 22.6809,6.0537 8.268,7.83043 12.1154,8.6142 17.7896,3.62398 z m 61.0544,-39.75094 5.5645,-2.22649 -3.6119,-3.10684 c -2.9806,-2.56381 -5.1253,-3.10684 -12.2704,-3.10684 -8.334,0 -16.5261,2.60566 -16.5261,5.25646 0,1.74793 10.5596,5.1833 16.3063,5.30494 2.7352,0.0579 7.4771,-0.89665 10.5376,-2.12123 z m -5.474,-14.69622 c 4.5305,-3.10034 4.991,-3.99224 6.0317,-11.68019 1.8282,-13.506487 11.1468,-24.730427 20.5321,-24.730427 1.5031,0 2.7329,-0.58857 2.7329,-1.30793 0,-1.90083 -6.1261,-3.13922 -10.3579,-2.09385 -2.0032,0.49483 -6.5251,1.35933 -10.0488,1.92111 -4.1487,0.66143 -7.6217,2.23641 -9.8541,4.46875 -3.2536,3.25366 -3.362,3.78627 -1.9282,9.48037 1.7058,6.77442 0.2449,12.864877 -3.0859,12.864877 -2.65,0 -3.923,-5.475657 -2.8431,-12.229127 0.8136,-5.08814 0.5247,-5.76447 -4.5093,-10.55312 -8.692,-8.26854 -18.1957,-9.53787 -29.2701,-3.90939 l -4.5641,2.31965 6.1253,0.91855 c 9.3889,1.40795 17.7269,8.4163 20.2929,17.05676 1.1238,3.784377 2.0433,7.909627 2.0433,9.167227 0,3.12886 8.7385,10.56279 12.4164,10.56279 1.6447,0 4.4738,-1.01522 6.2869,-2.25605 z m -4.7441,-33.615287 c 0.9534,-3.00399 8.3418,-6.79533 13.2423,-6.79533 4.923,0 4.7105,-5.38173 -0.3817,-9.66653 -2.1157,-1.7803 -4.2903,-5.28363 -4.8324,-7.78519 -1.4285,-6.59187 -5.5848,-11.88161 -9.3359,-11.88161 -3.2461,0 -7.3181,4.37836 -7.3181,7.86866 0,1.0681 -2.1,3.86552 -4.6667,6.21649 -2.5667,2.35098 -4.6667,5.18476 -4.6667,6.29729 0,1.11253 2.2483,3.18953 4.9962,4.61555 3.2804,1.70242 5.9127,4.49448 7.6652,8.13072 2.9556,6.13241 4.0982,6.77945 5.2978,2.99995 z M 39.959933,167.25469 c -3.6303,-3.12262 -7.8541,-13.74664 -5.7591,-14.48582 0.6107,-0.21549 1.3878,-2.4918 1.727,-5.05846 0.9037,-6.83934 1.9829,-9.79706 8.2145,-22.51261 7.5748,-15.45612 20.1151,-34.228357 32.7383,-49.007587 5.725,-6.70277 10.2931,-12.40277 10.1515,-12.66667 -0.1417,-0.26389 -0.055,-0.37753 0.1919,-0.25253 0.2472,0.125 5.9472,-4.39168 12.6666,-10.03706 34.588797,-29.05993 69.326797,-41.91541 107.236797,-39.68506 29.9195,1.76024 53.2475,10.81053 80.8573,31.36922 16.2022,12.06444 22.9666,18.30347 33.8805,31.24911 12.8108,15.19561 21.4082,28.307307 32.2441,49.174557 8.294,15.97213 9.3319,18.79883 9.3319,25.41624 0,4.095 -0.5743,8.95577 -1.2761,10.80172 -1.601,4.21088 -7.7775,7.484 -14.1228,7.484 -10.1891,0 -16.661,-13.80608 -9.8825,-21.08192 5.6489,-6.06341 15.948,-1.92051 15.948,6.41525 0,4.73831 -1.5123,5.18971 -3.3505,1 -1.5042,-3.42854 -7.1243,-4.77857 -8.8116,-2.11665 -3.6651,5.78229 0.6623,13.11665 7.7391,13.11665 9.3826,0 14.6322,-11.62758 10.2826,-22.77508 -3.9707,-10.17625 -15.8667,-32.36796 -23.0861,-43.06671 -12.7899,-18.953687 -37.5082,-45.764237 -40.4925,-43.919837 -0.7478,0.46217 -0.9848,0.23372 -0.5266,-0.50767 0.9117,-1.47518 -4.7176,-6.29829 -17.0877,-14.64042 -17.7905,-11.99752 -41.999,-21.77448 -60.6782,-24.50573 -27.2185,-3.97988 -63.5126,3.05476 -85.5499,16.58157 -3.1746,1.94861 -6.9719,4.28339 -8.4386,5.1884 -14.1822,8.75119 -31.698397,23.3094 -30.458797,25.31515 0.479,0.77496 0.2542,1.02791 -0.4995,0.56212 -1.7922,-1.10767 -24.375,23.19252 -24.375,26.22873 0,0.46889 -1.2765,2.32062 -2.8367,4.11495 -1.5601,1.79434 -3.5101,4.41311 -4.3333,5.819497 -0.8232,1.40638 -3.2189,5.14538 -5.3239,8.30887 -7.2332,10.87054 -15.6083,29.1187 -17.5328,38.20132 -2.5107,11.84936 -2.538,11.55252 1.5054,16.35784 2.7974,3.32455 4.3727,4.07408 8.0426,3.82692 7.5298,-0.5071 11.7225,-7.76848 7.4979,-12.98566 -3.0076,-3.71418 -7.0192,-2.4933 -7.0192,2.13616 0,4.30174 -4.4788,3.71854 -5.1029,-0.66446 -0.7658,-5.37868 3.147,-9.57596 8.927,-9.57596 6.4152,0 9.5092,3.20788 9.5092,9.85931 0,6.37355 -1.7718,9.60945 -6.64,12.12689 -5.621,2.90676 -11.3128,2.49988 -15.5079,-1.10858 z"
     id="path3729"
     inkscape:connector-curvature="0"
     sodipodi:nodetypes="scsscsscsssccscsscccccsscccccscsssccccscsccssscscsccscsccscccccccscccccscccsccccscccsssccccscccccscccccccccscccccsscsccsccscccscccccsccccscscccscsscscccsscccscscccssccscssscccsccccccsscsscccscccscscccssscccssccccsccscsscscccccssccsccccccccscccccccccccscccccssccsscccccccccsccscsscccccccccsccsccscscsccsssscccscssccssccccssscccsccsccccsccssccccccccccccccscccscccccsscccscccccsccccccccccccccscscscccccsccccccccscccscccscscscsccccsccsccccsccccccccccccccccscscsscsscccscscccccccccsccccccccsccsccscscccssscscssccccsccsccssccccccscccccccsssscscssccccccccccscsccccccsccccccccccccccsscssscccccccccssscccscccccccccccsscccccscccccccccccscccsccccccccccccccscccccsccsscsccssccccsccccscssccsccsscscccccccccccscccscscsccsccccssccccscccccccscsscc" />
</svg>
